<svg id="icon" viewBox="0 0 24 24" fill="none" xmlns="http://www.w3.org/2000/svg">
<path  d="M4 4H20V20H4V4Z" fill="var(--icon-shade-color)"/>
<path d="M12 17L11.4697 17.5303C11.7626 17.8232 12.2374 17.8232 12.5303 17.5303L12 17ZM12.75 7C12.75 6.58579 12.4142 6.25 12 6.25C11.5858 6.25 11.25 6.58579 11.25 7L12.75 7ZM8.53033 12.4697C8.23744 12.1768 7.76256 12.1768 7.46967 12.4697C7.17678 12.7626 7.17678 13.2374 7.46967 13.5303L8.53033 12.4697ZM16.5303 13.5303C16.8232 13.2374 16.8232 12.7626 16.5303 12.4697C16.2374 12.1768 15.7626 12.1768 15.4697 12.4697L16.5303 13.5303ZM4 4V3.25C3.58579 3.25 3.25 3.58579 3.25 4H4ZM20 4H20.75C20.75 3.58579 20.4142 3.25 20 3.25V4ZM20 20V20.75C20.4142 20.75 20.75 20.4142 20.75 20H20ZM4 20H3.25C3.25 20.4142 3.58579 20.75 4 20.75V20ZM12.75 17L12.75 7L11.25 7L11.25 17L12.75 17ZM7.46967 13.5303L11.4697 17.5303L12.5303 16.4697L8.53033 12.4697L7.46967 13.5303ZM12.5303 17.5303L16.5303 13.5303L15.4697 12.4697L11.4697 16.4697L12.5303 17.5303ZM4 4.75H20V3.25H4V4.75ZM19.25 4V20H20.75V4H19.25ZM20 19.25H4V20.75H20V19.25ZM4.75 20V4H3.25V20H4.75Z" fill="var(--icon-stroke-color,currentColor)"/>
</svg>
