<svg id="icon" viewBox="0 0 24 24" fill="none" xmlns="http://www.w3.org/2000/svg">
<path  d="M21 12C21 16.9706 16.9706 21 12 21C7.02944 21 3 16.9706 3 12C3 7.02944 7.02944 3 12 3C16.9706 3 21 7.02944 21 12Z" fill="var(--icon-shade-color)"/>
<path d="M12 17L11.4697 17.5303C11.7626 17.8232 12.2374 17.8232 12.5303 17.5303L12 17ZM12.75 7C12.75 6.58579 12.4142 6.25 12 6.25C11.5858 6.25 11.25 6.58579 11.25 7L12.75 7ZM8.53033 12.4697C8.23744 12.1768 7.76256 12.1768 7.46967 12.4697C7.17678 12.7626 7.17678 13.2374 7.46967 13.5303L8.53033 12.4697ZM16.5303 13.5303C16.8232 13.2374 16.8232 12.7626 16.5303 12.4697C16.2374 12.1768 15.7626 12.1768 15.4697 12.4697L16.5303 13.5303ZM12.75 17L12.75 7L11.25 7L11.25 17L12.75 17ZM7.46967 13.5303L11.4697 17.5303L12.5303 16.4697L8.53033 12.4697L7.46967 13.5303ZM12.5303 17.5303L16.5303 13.5303L15.4697 12.4697L11.4697 16.4697L12.5303 17.5303ZM20.25 12C20.25 16.5563 16.5563 20.25 12 20.25V21.75C17.3848 21.75 21.75 17.3848 21.75 12H20.25ZM12 20.25C7.44365 20.25 3.75 16.5563 3.75 12H2.25C2.25 17.3848 6.61522 21.75 12 21.75V20.25ZM3.75 12C3.75 7.44365 7.44365 3.75 12 3.75V2.25C6.61522 2.25 2.25 6.61522 2.25 12H3.75ZM12 3.75C16.5563 3.75 20.25 7.44365 20.25 12H21.75C21.75 6.61522 17.3848 2.25 12 2.25V3.75Z" fill="var(--icon-stroke-color,currentColor)"/>
</svg>
