<svg id="icon" viewBox="0 0 24 24" fill="none" xmlns="http://www.w3.org/2000/svg">
<path  d="M21 12C21 16.9706 16.9706 21 12 21C7.02944 21 3 16.9706 3 12C3 7.02944 7.02944 3 12 3C16.9706 3 21 7.02944 21 12Z" fill="var(--icon-shade-color)"/>
<path d="M17 12L17.5303 12.5303C17.8232 12.2374 17.8232 11.7626 17.5303 11.4697L17 12ZM7 11.25C6.58579 11.25 6.25 11.5858 6.25 12C6.25 12.4142 6.58579 12.75 7 12.75L7 11.25ZM12.4697 15.4697C12.1768 15.7626 12.1768 16.2374 12.4697 16.5303C12.7626 16.8232 13.2374 16.8232 13.5303 16.5303L12.4697 15.4697ZM13.5303 7.46967C13.2374 7.17678 12.7626 7.17678 12.4697 7.46967C12.1768 7.76256 12.1768 8.23744 12.4697 8.53033L13.5303 7.46967ZM17 11.25L7 11.25L7 12.75L17 12.75L17 11.25ZM13.5303 16.5303L17.5303 12.5303L16.4697 11.4697L12.4697 15.4697L13.5303 16.5303ZM17.5303 11.4697L13.5303 7.46967L12.4697 8.53033L16.4697 12.5303L17.5303 11.4697ZM20.25 12C20.25 16.5563 16.5563 20.25 12 20.25V21.75C17.3848 21.75 21.75 17.3848 21.75 12H20.25ZM12 20.25C7.44365 20.25 3.75 16.5563 3.75 12H2.25C2.25 17.3848 6.61522 21.75 12 21.75V20.25ZM3.75 12C3.75 7.44365 7.44365 3.75 12 3.75V2.25C6.61522 2.25 2.25 6.61522 2.25 12H3.75ZM12 3.75C16.5563 3.75 20.25 7.44365 20.25 12H21.75C21.75 6.61522 17.3848 2.25 12 2.25V3.75Z" fill="var(--icon-stroke-color,currentColor)"/>
</svg>
