<svg id="icon" viewBox="0 0 24 24" fill="none" xmlns="http://www.w3.org/2000/svg">
<path  d="M4 4H20V20H4V4Z" fill="var(--icon-shade-color)"/>
<path d="M7 12L6.46967 11.4697C6.17678 11.7626 6.17678 12.2374 6.46967 12.5303L7 12ZM17 12.75C17.4142 12.75 17.75 12.4142 17.75 12C17.75 11.5858 17.4142 11.25 17 11.25V12.75ZM11.5303 8.53033C11.8232 8.23744 11.8232 7.76256 11.5303 7.46967C11.2374 7.17678 10.7626 7.17678 10.4697 7.46967L11.5303 8.53033ZM10.4697 16.5303C10.7626 16.8232 11.2374 16.8232 11.5303 16.5303C11.8232 16.2374 11.8232 15.7626 11.5303 15.4697L10.4697 16.5303ZM4 4V3.25C3.58579 3.25 3.25 3.58579 3.25 4H4ZM20 4H20.75C20.75 3.58579 20.4142 3.25 20 3.25V4ZM20 20V20.75C20.4142 20.75 20.75 20.4142 20.75 20H20ZM4 20H3.25C3.25 20.4142 3.58579 20.75 4 20.75V20ZM7 12.75H17V11.25H7V12.75ZM10.4697 7.46967L6.46967 11.4697L7.53033 12.5303L11.5303 8.53033L10.4697 7.46967ZM6.46967 12.5303L10.4697 16.5303L11.5303 15.4697L7.53033 11.4697L6.46967 12.5303ZM4 4.75H20V3.25H4V4.75ZM19.25 4V20H20.75V4H19.25ZM20 19.25H4V20.75H20V19.25ZM4.75 20V4H3.25V20H4.75Z" fill="var(--icon-stroke-color,currentColor)"/>
</svg>
