<svg id="icon" viewBox="0 0 24 24" fill="none" xmlns="http://www.w3.org/2000/svg">
<path  d="M8.14282 12C8.14282 14.1303 9.86972 15.8572 12 15.8572C14.1302 15.8572 15.8571 14.1303 15.8571 12C15.8571 9.86979 14.1302 8.14288 12 8.14288C9.86972 8.14288 8.14282 9.86979 8.14282 12Z" fill="var(--icon-shade-color)"/>
<path d="M15.8571 12C15.8571 14.1302 14.1302 15.8571 12 15.8571C9.86976 15.8571 8.14286 14.1302 8.14286 12C8.14286 9.86976 9.86976 8.14286 12 8.14286C14.1302 8.14286 15.8571 9.86976 15.8571 12ZM15.8571 12V13.2857C15.8571 14.7059 17.0084 15.8571 18.4286 15.8571C19.3408 15.8571 20.1422 15.3821 20.5986 14.6658C20.8528 14.2671 21 13.7936 21 13.2857V12C21 7.02944 16.9706 3 12 3C7.02944 3 3 7.02944 3 12C3 16.9706 7.02944 21 12 21C13.9122 21 15.6851 20.4037 17.1429 19.3868" stroke="var(--icon-stroke-color,currentColor)" stroke-width="1.5" stroke-linecap="round" stroke-linejoin="round"/>
</svg>
