<svg id="icon" viewBox="0 0 24 24" fill="none" xmlns="http://www.w3.org/2000/svg">
<path  d="M19.2498 6.66602C17.3196 7.66328 16 9.67755 16 12C16 14.3225 17.3196 16.3367 19.2498 17.334C17.6111 19.5575 14.974 21 12 21C9.02601 21 6.38892 19.5575 4.75024 17.334C6.68049 16.3367 8.00003 14.3225 8.00003 12C8.00003 9.67754 6.6805 7.66328 4.75025 6.66602C6.38892 4.44251 9.02602 3 12 3C14.974 3 17.6111 4.44251 19.2498 6.66602Z" fill="var(--icon-shade-color)"/>
<path d="M21 12C21 16.9706 16.9706 21 12 21M21 12C21 7.02944 16.9706 3 12 3M21 12H3M12 21C7.02944 21 3 16.9706 3 12M12 21V3M3 12C3 7.02944 7.02944 3 12 3M19.2326 6.6763C18.6894 6.95867 18.1917 7.32301 17.7573 7.75736C17.2002 8.31451 16.7582 8.97595 16.4567 9.7039C16.1552 10.4319 16 11.2121 16 12C16 12.7879 16.1552 13.5682 16.4567 14.2961C16.7582 15.0241 17.2002 15.6855 17.7573 16.2426C18.1929 16.6782 18.6923 17.0434 19.2373 17.3261M4.76734 6.6763C5.31056 6.95867 5.80829 7.32301 6.24264 7.75736C6.79979 8.31451 7.24175 8.97595 7.54328 9.7039C7.84481 10.4319 8 11.2121 8 12C8 12.7879 7.84481 13.5681 7.54328 14.2961C7.24175 15.0241 6.79979 15.6855 6.24264 16.2426C5.80704 16.6782 5.30771 17.0434 4.76267 17.3261" stroke="var(--icon-stroke-color,currentColor)" stroke-width="1.5" stroke-linecap="round" stroke-linejoin="round"/>
</svg>
