<svg id="icon" viewBox="0 0 24 24" fill="none" xmlns="http://www.w3.org/2000/svg">
<path d="M20 9V7C20 5.89543 19.1046 5 18 5H6C4.89543 5 4 5.89543 4 7V19C4 20.1046 4.89543 21 6 21H9M15 3V7M9 3V7M4 11H9M20 21V20C20 18.8954 19.1046 18 18 18H14C12.8954 18 12 18.8954 12 20V21M18 13C18 14.1046 17.1046 15 16 15C14.8954 15 14 14.1046 14 13C14 11.8954 14.8954 11 16 11C17.1046 11 18 11.8954 18 13Z" stroke="var(--icon-stroke-color,currentColor)" stroke-width="1.5" stroke-linecap="round" stroke-linejoin="round"/>
</svg>
