<svg id="icon" viewBox="0 0 24 24" fill="none" xmlns="http://www.w3.org/2000/svg">
<path d="M19.25 9C19.25 9.41421 19.5858 9.75 20 9.75C20.4142 9.75 20.75 9.41421 20.75 9H19.25ZM10 21.75C10.4142 21.75 10.75 21.4142 10.75 21C10.75 20.5858 10.4142 20.25 10 20.25V21.75ZM15.75 3C15.75 2.58579 15.4142 2.25 15 2.25C14.5858 2.25 14.25 2.58579 14.25 3H15.75ZM14.25 7C14.25 7.41421 14.5858 7.75 15 7.75C15.4142 7.75 15.75 7.41421 15.75 7H14.25ZM9.75 3C9.75 2.58579 9.41421 2.25 9 2.25C8.58579 2.25 8.25 2.58579 8.25 3H9.75ZM8.25 7C8.25 7.41421 8.58579 7.75 9 7.75C9.41421 7.75 9.75 7.41421 9.75 7H8.25ZM4 10.25C3.58579 10.25 3.25 10.5858 3.25 11C3.25 11.4142 3.58579 11.75 4 11.75V10.25ZM10 11.75C10.4142 11.75 10.75 11.4142 10.75 11C10.75 10.5858 10.4142 10.25 10 10.25V11.75ZM14 16V15.25H13.25V16H14ZM20 16H20.75V15.25H20V16ZM20 21V21.75H20.75V21H20ZM14 21H13.25V21.75H14V21ZM6 5.75H18V4.25H6V5.75ZM4.75 19V7H3.25V19H4.75ZM6 20.25C5.30964 20.25 4.75 19.6904 4.75 19H3.25C3.25 20.5188 4.48122 21.75 6 21.75V20.25ZM18 5.75C18.6904 5.75 19.25 6.30964 19.25 7H20.75C20.75 5.48122 19.5188 4.25 18 4.25V5.75ZM6 4.25C4.48122 4.25 3.25 5.48122 3.25 7H4.75C4.75 6.30964 5.30964 5.75 6 5.75V4.25ZM19.25 7V9H20.75V7H19.25ZM10 20.25H6V21.75H10V20.25ZM14.25 3V7H15.75V3H14.25ZM8.25 3V7H9.75V3H8.25ZM4 11.75H10V10.25H4V11.75ZM14 16.75H20V15.25H14V16.75ZM19.25 16V21H20.75V16H19.25ZM20 20.25H14V21.75H20V20.25ZM14.75 21V16H13.25V21H14.75ZM15.75 15C15.75 14.3096 16.3096 13.75 17 13.75V12.25C15.4812 12.25 14.25 13.4812 14.25 15H15.75ZM17 13.75C17.6904 13.75 18.25 14.3096 18.25 15H19.75C19.75 13.4812 18.5188 12.25 17 12.25V13.75ZM14.25 15V16H15.75V15H14.25ZM18.25 15V16H19.75V15H18.25Z" fill="var(--icon-stroke-color,currentColor)"/>
</svg>
