<svg id="icon" viewBox="0 0 24 24" fill="none" xmlns="http://www.w3.org/2000/svg">
<path  d="M3 6.5C3 5.94772 3.44772 5.5 4 5.5H15C15.5523 5.5 16 5.94772 16 6.5V17.5C16 18.0523 15.5523 18.5 15 18.5H4C3.44772 18.5 3 18.0523 3 17.5V6.5Z" fill="var(--icon-shade-color)"/>
<path d="M16 9L21 7V17L16 15M4 18.5H15C15.5523 18.5 16 18.0523 16 17.5V6.5C16 5.94772 15.5523 5.5 15 5.5H4C3.44772 5.5 3 5.94772 3 6.5V17.5C3 18.0523 3.44772 18.5 4 18.5Z" stroke="var(--icon-stroke-color,currentColor)" stroke-width="1.5" stroke-linecap="round" stroke-linejoin="round"/>
</svg>
