<svg id="icon" viewBox="0 0 24 24" fill="none" xmlns="http://www.w3.org/2000/svg">
<path  d="M4.97031 9.81038C5.06807 8.78391 5.93019 8 6.9613 8H17.0384C18.0696 8 18.9317 8.78391 19.0294 9.81038L19.7913 17.8104C19.9032 18.9845 18.9798 20 17.8003 20H6.1994C5.01991 20 4.09658 18.9846 4.20841 17.8104L4.97031 9.81038Z" fill="var(--icon-shade-color)"/>
<path d="M4.20865 17.8104L3.46203 17.7393L4.20865 17.8104ZM19.7916 17.8104L20.5382 17.7393L19.7916 17.8104ZM19.0297 9.81038L18.2831 9.88149L19.0297 9.81038ZM4.97055 9.81038L5.71718 9.88149L4.97055 9.81038ZM7.25011 8C7.25011 8.41421 7.5859 8.75 8.00011 8.75C8.41433 8.75 8.75011 8.41421 8.75011 8H7.25011ZM15.2501 8C15.2501 8.41421 15.5859 8.75 16.0001 8.75C16.4143 8.75 16.7501 8.41421 16.7501 8H15.2501ZM8.75011 11C8.75011 10.5858 8.41433 10.25 8.00011 10.25C7.5859 10.25 7.25011 10.5858 7.25011 11H8.75011ZM7.25011 11.01C7.25011 11.4242 7.5859 11.76 8.00011 11.76C8.41433 11.76 8.75011 11.4242 8.75011 11.01H7.25011ZM16.7501 11C16.7501 10.5858 16.4143 10.25 16.0001 10.25C15.5859 10.25 15.2501 10.5858 15.2501 11H16.7501ZM15.2501 11.01C15.2501 11.4242 15.5859 11.76 16.0001 11.76C16.4143 11.76 16.7501 11.4242 16.7501 11.01H15.2501ZM6.96155 8.75H17.0387V7.25H6.96155V8.75ZM18.2831 9.88149L19.045 17.8815L20.5382 17.7393L19.7763 9.73928L18.2831 9.88149ZM17.8006 19.25H6.19964V20.75H17.8006V19.25ZM4.95527 17.8815L5.71718 9.88149L4.22393 9.73928L3.46203 17.7393L4.95527 17.8815ZM6.19964 19.25C5.46246 19.25 4.88538 18.6153 4.95527 17.8815L3.46203 17.7393C3.30827 19.3538 4.57785 20.75 6.19964 20.75V19.25ZM19.045 17.8815C19.1148 18.6153 18.5378 19.25 17.8006 19.25V20.75C19.4224 20.75 20.692 19.3538 20.5382 17.7393L19.045 17.8815ZM17.0387 8.75C17.6831 8.75 18.222 9.23994 18.2831 9.88149L19.7763 9.73928C19.6419 8.32788 18.4565 7.25 17.0387 7.25V8.75ZM6.96155 7.25C5.54376 7.25 4.35835 8.32788 4.22393 9.73928L5.71718 9.88149C5.77828 9.23994 6.3171 8.75 6.96155 8.75V7.25ZM8.75011 7C8.75011 5.20507 10.2052 3.75 12.0001 3.75V2.25C9.37676 2.25 7.25011 4.37665 7.25011 7H8.75011ZM12.0001 3.75C13.795 3.75 15.2501 5.20507 15.2501 7H16.7501C16.7501 4.37665 14.6235 2.25 12.0001 2.25V3.75ZM7.25011 7V8H8.75011V7H7.25011ZM15.2501 7V8H16.7501V7H15.2501ZM7.25011 11V11.01H8.75011V11H7.25011ZM15.2501 11V11.01H16.7501V11H15.2501Z" fill="var(--icon-stroke-color,currentColor)"/>
</svg>
