<svg id="icon" viewBox="0 0 24 24" fill="none" xmlns="http://www.w3.org/2000/svg">
<path  d="M4.97055 9.81038C5.06831 8.78391 5.93043 8 6.96155 8H17.0387C18.0698 8 18.9319 8.78391 19.0297 9.81038L19.7916 17.8104C19.9034 18.9845 18.9801 20 17.8006 20H6.19964C5.02016 20 4.09682 18.9846 4.20865 17.8104L4.97055 9.81038Z" fill="var(--icon-shade-color)"/>
<path d="M4.20841 17.8104L3.46178 17.7393L4.20841 17.8104ZM19.7913 17.8104L20.538 17.7393L19.7913 17.8104ZM19.0294 9.81038L18.2828 9.88149L19.0294 9.81038ZM4.97031 9.81038L5.71693 9.88149L4.97031 9.81038ZM7.24987 11C7.24987 11.4142 7.58566 11.75 7.99987 11.75C8.41408 11.75 8.74987 11.4142 8.74987 11H7.24987ZM15.2499 11C15.2499 11.4142 15.5857 11.75 15.9999 11.75C16.4141 11.75 16.7499 11.4142 16.7499 11H15.2499ZM6.9613 8.75H17.0384V7.25H6.9613V8.75ZM18.2828 9.88149L19.0447 17.8815L20.538 17.7393L19.7761 9.73928L18.2828 9.88149ZM17.8003 19.25H6.1994V20.75H17.8003V19.25ZM4.95503 17.8815L5.71693 9.88149L4.22369 9.73928L3.46178 17.7393L4.95503 17.8815ZM6.1994 19.25C5.46222 19.25 4.88514 18.6153 4.95503 17.8815L3.46178 17.7393C3.30802 19.3538 4.57761 20.75 6.1994 20.75V19.25ZM19.0447 17.8815C19.1146 18.6153 18.5375 19.25 17.8003 19.25V20.75C19.4221 20.75 20.6917 19.3538 20.538 17.7393L19.0447 17.8815ZM17.0384 8.75C17.6829 8.75 18.2217 9.23994 18.2828 9.88149L19.7761 9.73928C19.6416 8.32788 18.4562 7.25 17.0384 7.25V8.75ZM6.9613 7.25C5.54352 7.25 4.35811 8.32788 4.22369 9.73928L5.71693 9.88149C5.77803 9.23994 6.31685 8.75 6.9613 8.75V7.25ZM8.74987 7C8.74987 5.20507 10.2049 3.75 11.9999 3.75V2.25C9.37652 2.25 7.24987 4.37665 7.24987 7H8.74987ZM11.9999 3.75C13.7948 3.75 15.2499 5.20507 15.2499 7H16.7499C16.7499 4.37665 14.6232 2.25 11.9999 2.25V3.75ZM7.24987 7V11H8.74987V7H7.24987ZM15.2499 7V11H16.7499V7H15.2499Z" fill="var(--icon-stroke-color,currentColor)"/>
</svg>
