<svg id="icon" viewBox="0 0 24 24" fill="none" xmlns="http://www.w3.org/2000/svg">
<path  d="M4 4H20V20H4V4Z" fill="var(--icon-shade-color)"/>
<path d="M17.5303 9.53033C17.8232 9.23744 17.8232 8.76256 17.5303 8.46967C17.2374 8.17678 16.7626 8.17678 16.4697 8.46967L17.5303 9.53033ZM9.99998 16L9.46965 16.5304C9.76255 16.8232 10.2374 16.8232 10.5303 16.5304L9.99998 16ZM7.53027 12.4697C7.23737 12.1768 6.7625 12.1768 6.46961 12.4697C6.17671 12.7626 6.17672 13.2374 6.46961 13.5303L7.53027 12.4697ZM4 4V3.25C3.58579 3.25 3.25 3.58579 3.25 4H4ZM20 4H20.75C20.75 3.58579 20.4142 3.25 20 3.25V4ZM20 20V20.75C20.4142 20.75 20.75 20.4142 20.75 20H20ZM4 20H3.25C3.25 20.4142 3.58579 20.75 4 20.75V20ZM16.4697 8.46967L9.46965 15.4697L10.5303 16.5304L17.5303 9.53033L16.4697 8.46967ZM6.46961 13.5303L9.46965 16.5304L10.5303 15.4697L7.53027 12.4697L6.46961 13.5303ZM4 4.75H20V3.25H4V4.75ZM19.25 4V20H20.75V4H19.25ZM20 19.25H4V20.75H20V19.25ZM4.75 20V4H3.25V20H4.75Z" fill="var(--icon-stroke-color,currentColor)"/>
</svg>
