<svg id="icon" viewBox="0 0 24 24" fill="none" xmlns="http://www.w3.org/2000/svg">
<path  d="M4 4H20V20H4V4Z" fill="var(--icon-shade-color)"/>
<path d="M7.53033 9.46967C7.23744 9.17678 6.76256 9.17678 6.46967 9.46967C6.17678 9.76256 6.17678 10.2374 6.46967 10.5303L7.53033 9.46967ZM12 15L11.4697 15.5303C11.7626 15.8232 12.2374 15.8232 12.5303 15.5303L12 15ZM17.5303 10.5303C17.8232 10.2374 17.8232 9.76256 17.5303 9.46967C17.2374 9.17678 16.7626 9.17678 16.4697 9.46967L17.5303 10.5303ZM4 4V3.25C3.58579 3.25 3.25 3.58579 3.25 4H4ZM20 4H20.75C20.75 3.58579 20.4142 3.25 20 3.25V4ZM20 20V20.75C20.4142 20.75 20.75 20.4142 20.75 20H20ZM4 20H3.25C3.25 20.4142 3.58579 20.75 4 20.75V20ZM6.46967 10.5303L11.4697 15.5303L12.5303 14.4697L7.53033 9.46967L6.46967 10.5303ZM12.5303 15.5303L17.5303 10.5303L16.4697 9.46967L11.4697 14.4697L12.5303 15.5303ZM4 4.75H20V3.25H4V4.75ZM19.25 4V20H20.75V4H19.25ZM20 19.25H4V20.75H20V19.25ZM4.75 20V4H3.25V20H4.75Z" fill="var(--icon-stroke-color,currentColor)"/>
</svg>
