<svg id="icon" viewBox="0 0 24 24" fill="none" xmlns="http://www.w3.org/2000/svg">
<path  d="M4 4H20V20H4V4Z" fill="var(--icon-shade-color)"/>
<path d="M16.4697 14.5303C16.7626 14.8232 17.2374 14.8232 17.5303 14.5303C17.8232 14.2374 17.8232 13.7626 17.5303 13.4697L16.4697 14.5303ZM12 9L12.5303 8.46967C12.2374 8.17678 11.7626 8.17678 11.4697 8.46967L12 9ZM6.46967 13.4697C6.17678 13.7626 6.17678 14.2374 6.46967 14.5303C6.76256 14.8232 7.23744 14.8232 7.53033 14.5303L6.46967 13.4697ZM4 4V3.25C3.58579 3.25 3.25 3.58579 3.25 4H4ZM20 4H20.75C20.75 3.58579 20.4142 3.25 20 3.25V4ZM20 20V20.75C20.4142 20.75 20.75 20.4142 20.75 20H20ZM4 20H3.25C3.25 20.4142 3.58579 20.75 4 20.75V20ZM17.5303 13.4697L12.5303 8.46967L11.4697 9.53033L16.4697 14.5303L17.5303 13.4697ZM11.4697 8.46967L6.46967 13.4697L7.53033 14.5303L12.5303 9.53033L11.4697 8.46967ZM4 4.75H20V3.25H4V4.75ZM19.25 4V20H20.75V4H19.25ZM20 19.25H4V20.75H20V19.25ZM4.75 20V4H3.25V20H4.75Z" fill="var(--icon-stroke-color,currentColor)"/>
</svg>
