<svg id="icon" viewBox="0 0 24 24" fill="none" xmlns="http://www.w3.org/2000/svg">
<path  d="M21 12C21 16.9706 16.9706 21 12 21C7.02944 21 3 16.9706 3 12C3 7.02944 7.02944 3 12 3C16.9706 3 21 7.02944 21 12Z" fill="var(--icon-shade-color)"/>
<path d="M16.4697 14.5303C16.7626 14.8232 17.2374 14.8232 17.5303 14.5303C17.8232 14.2374 17.8232 13.7626 17.5303 13.4697L16.4697 14.5303ZM12 9L12.5303 8.46967C12.2374 8.17678 11.7626 8.17678 11.4697 8.46967L12 9ZM6.46967 13.4697C6.17678 13.7626 6.17678 14.2374 6.46967 14.5303C6.76256 14.8232 7.23744 14.8232 7.53033 14.5303L6.46967 13.4697ZM17.5303 13.4697L12.5303 8.46967L11.4697 9.53033L16.4697 14.5303L17.5303 13.4697ZM11.4697 8.46967L6.46967 13.4697L7.53033 14.5303L12.5303 9.53033L11.4697 8.46967ZM20.25 12C20.25 16.5563 16.5563 20.25 12 20.25V21.75C17.3848 21.75 21.75 17.3848 21.75 12H20.25ZM12 20.25C7.44365 20.25 3.75 16.5563 3.75 12H2.25C2.25 17.3848 6.61522 21.75 12 21.75V20.25ZM3.75 12C3.75 7.44365 7.44365 3.75 12 3.75V2.25C6.61522 2.25 2.25 6.61522 2.25 12H3.75ZM12 3.75C16.5563 3.75 20.25 7.44365 20.25 12H21.75C21.75 6.61522 17.3848 2.25 12 2.25V3.75Z" fill="var(--icon-stroke-color,currentColor)"/>
</svg>
