<svg id="icon" viewBox="0 0 24 24" fill="none" xmlns="http://www.w3.org/2000/svg">
<path  d="M4 4H20V20H4V4Z" fill="var(--icon-shade-color)"/>
<path d="M15.5303 9.53033C15.8232 9.23744 15.8232 8.76256 15.5303 8.46967C15.2374 8.17678 14.7625 8.17678 14.4696 8.46967L15.5303 9.53033ZM8.46961 14.4697C8.17672 14.7626 8.17672 15.2374 8.46961 15.5303C8.76251 15.8232 9.23738 15.8232 9.53027 15.5303L8.46961 14.4697ZM9.53039 8.46967C9.2375 8.17678 8.76263 8.17678 8.46973 8.46967C8.17684 8.76256 8.17684 9.23744 8.46973 9.53033L9.53039 8.46967ZM14.4697 15.5303C14.7626 15.8232 15.2375 15.8232 15.5304 15.5303C15.8233 15.2374 15.8233 14.7626 15.5304 14.4697L14.4697 15.5303ZM4 4V3.25C3.58579 3.25 3.25 3.58579 3.25 4H4ZM20 4H20.75C20.75 3.58579 20.4142 3.25 20 3.25V4ZM20 20V20.75C20.4142 20.75 20.75 20.4142 20.75 20H20ZM4 20H3.25C3.25 20.4142 3.58579 20.75 4 20.75V20ZM14.4696 8.46967L8.46961 14.4697L9.53027 15.5303L15.5303 9.53033L14.4696 8.46967ZM8.46973 9.53033L14.4697 15.5303L15.5304 14.4697L9.53039 8.46967L8.46973 9.53033ZM4 4.75H20V3.25H4V4.75ZM19.25 4V20H20.75V4H19.25ZM20 19.25H4V20.75H20V19.25ZM4.75 20V4H3.25V20H4.75Z" fill="var(--icon-stroke-color,currentColor)"/>
</svg>
