<svg id="icon" viewBox="0 0 24 24" fill="none" xmlns="http://www.w3.org/2000/svg">
<path  d="M4 8C4 5.79086 5.79086 4 8 4H16C18.2091 4 20 5.79086 20 8V16C20 18.2091 18.2091 20 16 20H8C5.79086 20 4 18.2091 4 16V8Z" fill="var(--icon-shade-color)"/>
<path d="M15.5303 9.53033C15.8232 9.23744 15.8232 8.76256 15.5303 8.46967C15.2374 8.17678 14.7625 8.17678 14.4696 8.46967L15.5303 9.53033ZM8.46961 14.4697C8.17672 14.7626 8.17672 15.2374 8.46961 15.5303C8.76251 15.8232 9.23738 15.8232 9.53027 15.5303L8.46961 14.4697ZM9.53039 8.46967C9.2375 8.17678 8.76263 8.17678 8.46973 8.46967C8.17684 8.76256 8.17684 9.23744 8.46973 9.53033L9.53039 8.46967ZM14.4697 15.5303C14.7626 15.8232 15.2375 15.8232 15.5304 15.5303C15.8233 15.2374 15.8233 14.7626 15.5304 14.4697L14.4697 15.5303ZM14.4696 8.46967L8.46961 14.4697L9.53027 15.5303L15.5303 9.53033L14.4696 8.46967ZM8.46973 9.53033L14.4697 15.5303L15.5304 14.4697L9.53039 8.46967L8.46973 9.53033ZM8 4.75H16V3.25H8V4.75ZM19.25 8V16H20.75V8H19.25ZM16 19.25H8V20.75H16V19.25ZM4.75 16V8H3.25V16H4.75ZM8 19.25C6.20507 19.25 4.75 17.7949 4.75 16H3.25C3.25 18.6234 5.37665 20.75 8 20.75V19.25ZM19.25 16C19.25 17.7949 17.7949 19.25 16 19.25V20.75C18.6234 20.75 20.75 18.6234 20.75 16H19.25ZM16 4.75C17.7949 4.75 19.25 6.20507 19.25 8H20.75C20.75 5.37665 18.6234 3.25 16 3.25V4.75ZM8 3.25C5.37665 3.25 3.25 5.37665 3.25 8H4.75C4.75 6.20507 6.20507 4.75 8 4.75V3.25Z" fill="var(--icon-stroke-color,currentColor)"/>
</svg>
