<svg id="icon" viewBox="0 0 24 24" fill="none" xmlns="http://www.w3.org/2000/svg">
<path  fill-rule="evenodd" clip-rule="evenodd" d="M8 14V4H17.3604C18.3138 4 19.1346 4.67292 19.3216 5.60777L20.5216 11.6078C20.7691 12.8453 19.8225 14 18.5604 14H14L16.4258 17.6386C17.1929 18.7894 16.5885 20.3529 15.2467 20.6883L15.1992 20.7002C14.4642 20.8839 13.6886 20.6367 13.1956 20.0615L8 14Z" fill="var(--icon-shade-color)"/>
<path d="M8 14H4V4H8M8 14V4M8 14L13.1956 20.0615C13.6886 20.6367 14.4642 20.8839 15.1992 20.7002L15.2467 20.6883C16.5885 20.3529 17.1929 18.7894 16.4258 17.6386L14 14H18.5604C19.8225 14 20.7691 12.8453 20.5216 11.6078L19.3216 5.60777C19.1346 4.67292 18.3138 4 17.3604 4H8" stroke="var(--icon-stroke-color,currentColor)" stroke-width="1.5" stroke-linecap="round" stroke-linejoin="round"/>
</svg>
