<svg id="icon" viewBox="0 0 24 24" fill="none" xmlns="http://www.w3.org/2000/svg">
<path  d="M5 21H19V9H15C13.8954 9 13 8.10457 13 7V3H5V21Z" fill="var(--icon-shade-color)"/>
<path d="M5 3V2.25C4.58579 2.25 4.25 2.58579 4.25 3H5ZM19 21V21.75C19.4142 21.75 19.75 21.4142 19.75 21H19ZM5 21H4.25C4.25 21.4142 4.58579 21.75 5 21.75V21ZM14 3L14.5303 2.46967C14.3897 2.32902 14.1989 2.25 14 2.25V3ZM19 8H19.75C19.75 7.80109 19.671 7.61032 19.5303 7.46967L19 8ZM15.5305 12.5303C15.8233 12.2374 15.8233 11.7626 15.5305 11.4697C15.2376 11.1768 14.7627 11.1768 14.4698 11.4697L15.5305 12.5303ZM10.8001 16.2L10.2698 16.7304C10.5627 17.0233 11.0375 17.0233 11.3304 16.7304L10.8001 16.2ZM9.53036 13.8697C9.23747 13.5768 8.76259 13.5768 8.4697 13.8697C8.17681 14.1626 8.17682 14.6375 8.46971 14.9304L9.53036 13.8697ZM19 20.25H5V21.75H19V20.25ZM5.75 21V3H4.25V21H5.75ZM5 3.75H14V2.25H5V3.75ZM18.25 8V21H19.75V8H18.25ZM13.4697 3.53033L18.4697 8.53033L19.5303 7.46967L14.5303 2.46967L13.4697 3.53033ZM12.25 3V7H13.75V3H12.25ZM15 9.75H19V8.25H15V9.75ZM12.25 7C12.25 8.51878 13.4812 9.75 15 9.75V8.25C14.3096 8.25 13.75 7.69036 13.75 7H12.25ZM14.4698 11.4697L10.2698 15.6697L11.3304 16.7304L15.5305 12.5303L14.4698 11.4697ZM8.46971 14.9304L10.2698 16.7304L11.3304 15.6697L9.53036 13.8697L8.46971 14.9304Z" fill="var(--icon-stroke-color,currentColor)"/>
</svg>
