<svg id="icon" viewBox="0 0 24 24" fill="none" xmlns="http://www.w3.org/2000/svg">
<path  d="M5 21H19V9H15C13.8954 9 13 8.10457 13 7V3H5V21Z" fill="var(--icon-shade-color)"/>
<path d="M5 3V2.25C4.58579 2.25 4.25 2.58579 4.25 3H5ZM19 21V21.75C19.4142 21.75 19.75 21.4142 19.75 21H19ZM5 21H4.25C4.25 21.4142 4.58579 21.75 5 21.75V21ZM14 3L14.5303 2.46967C14.3897 2.32902 14.1989 2.25 14 2.25V3ZM19 8H19.75C19.75 7.80109 19.671 7.61032 19.5303 7.46967L19 8ZM15.0303 12.0303C15.3232 11.7374 15.3232 11.2626 15.0303 10.9697C14.7374 10.6768 14.2626 10.6768 13.9697 10.9697L15.0303 12.0303ZM8.96967 15.9697C8.67678 16.2626 8.67678 16.7374 8.96967 17.0303C9.26256 17.3232 9.73744 17.3232 10.0303 17.0303L8.96967 15.9697ZM10.0303 10.9697C9.73744 10.6768 9.26256 10.6768 8.96967 10.9697C8.67678 11.2626 8.67678 11.7374 8.96967 12.0303L10.0303 10.9697ZM13.9697 17.0303C14.2626 17.3232 14.7374 17.3232 15.0303 17.0303C15.3232 16.7374 15.3232 16.2626 15.0303 15.9697L13.9697 17.0303ZM19 20.25H5V21.75H19V20.25ZM5.75 21V3H4.25V21H5.75ZM5 3.75H14V2.25H5V3.75ZM18.25 8V21H19.75V8H18.25ZM13.4697 3.53033L18.4697 8.53033L19.5303 7.46967L14.5303 2.46967L13.4697 3.53033ZM12.25 3V7H13.75V3H12.25ZM15 9.75H19V8.25H15V9.75ZM12.25 7C12.25 8.51878 13.4812 9.75 15 9.75V8.25C14.3096 8.25 13.75 7.69036 13.75 7H12.25ZM13.9697 10.9697L8.96967 15.9697L10.0303 17.0303L15.0303 12.0303L13.9697 10.9697ZM8.96967 12.0303L13.9697 17.0303L15.0303 15.9697L10.0303 10.9697L8.96967 12.0303Z" fill="var(--icon-stroke-color,currentColor)"/>
</svg>
