<svg id="icon" viewBox="0 0 24 24" fill="none" xmlns="http://www.w3.org/2000/svg">
<path  d="M4 20H8L14 14L10 10L4 16V20Z" fill="var(--icon-shade-color)"/>
<path d="M4 16L3.46967 15.4697C3.32902 15.6103 3.25 15.8011 3.25 16H4ZM13 7L13.5303 6.46967C13.2374 6.17678 12.7626 6.17678 12.4697 6.46967L13 7ZM17 11L17.5303 11.5303C17.8232 11.2374 17.8232 10.7626 17.5303 10.4697L17 11ZM8 20V20.75C8.19891 20.75 8.38968 20.671 8.53033 20.5303L8 20ZM4 20H3.25C3.25 20.4142 3.58579 20.75 4 20.75V20ZM4 4V3.25C3.58579 3.25 3.25 3.58579 3.25 4H4ZM20 4H20.75C20.75 3.58579 20.4142 3.25 20 3.25V4ZM20 20V20.75C20.4142 20.75 20.75 20.4142 20.75 20H20ZM12 19.25C11.5858 19.25 11.25 19.5858 11.25 20C11.25 20.4142 11.5858 20.75 12 20.75V19.25ZM3.25 12C3.25 12.4142 3.58579 12.75 4 12.75C4.41421 12.75 4.75 12.4142 4.75 12H3.25ZM4.53033 16.5303L13.5303 7.53033L12.4697 6.46967L3.46967 15.4697L4.53033 16.5303ZM12.4697 7.53033L16.4697 11.5303L17.5303 10.4697L13.5303 6.46967L12.4697 7.53033ZM16.4697 10.4697L7.46967 19.4697L8.53033 20.5303L17.5303 11.5303L16.4697 10.4697ZM8 19.25H4V20.75H8V19.25ZM4.75 20V16H3.25V20H4.75ZM9.46967 10.5303L13.4697 14.5303L14.5303 13.4697L10.5303 9.46967L9.46967 10.5303ZM4 4.75H20V3.25H4V4.75ZM19.25 4V20H20.75V4H19.25ZM20 19.25H12V20.75H20V19.25ZM4.75 12V4H3.25V12H4.75Z" fill="var(--icon-stroke-color,currentColor)"/>
</svg>
