<svg id="icon" viewBox="0 0 24 24" fill="none" xmlns="http://www.w3.org/2000/svg">
<path  d="M5 17L20 10L5 3V17Z" fill="var(--icon-shade-color)"/>
<path d="M5 3L5.31716 2.32036C5.08488 2.21196 4.81333 2.2297 4.59712 2.3674C4.38091 2.50509 4.25 2.74367 4.25 3L5 3ZM4.25 21C4.25 21.4142 4.58579 21.75 5 21.75C5.41421 21.75 5.75 21.4142 5.75 21H4.25ZM5 17H4.25C4.25 17.2563 4.38091 17.4949 4.59712 17.6326C4.81333 17.7703 5.08488 17.788 5.31716 17.6796L5 17ZM20 10L20.3172 10.6796C20.5812 10.5564 20.75 10.2914 20.75 10C20.75 9.70861 20.5812 9.44359 20.3172 9.32036L20 10ZM4.25 3V21H5.75V3H4.25ZM5.31716 17.6796L20.3172 10.6796L19.6828 9.32036L4.68284 16.3204L5.31716 17.6796ZM20.3172 9.32036L5.31716 2.32036L4.68284 3.67964L19.6828 10.6796L20.3172 9.32036ZM5.75 17V3H4.25V17H5.75Z" fill="var(--icon-stroke-color,currentColor)"/>
</svg>
