<svg id="icon" viewBox="0 0 24 24" fill="none" xmlns="http://www.w3.org/2000/svg">
<path  d="M8 15C5 15 4 16 4 16V4C4 4 5 3 8 3C11 3 13 5 16 5C19 5 20 4 20 4V16C20 16 19 17 16 17C13 17 11 15 8 15Z" fill="var(--icon-shade-color)"/>
<path d="M3.46967 15.4697C3.17678 15.7626 3.17678 16.2374 3.46967 16.5303C3.76256 16.8232 4.23744 16.8232 4.53033 16.5303L3.46967 15.4697ZM20 16L20.5303 16.5303C20.671 16.3897 20.75 16.1989 20.75 16H20ZM20 4H20.75C20.75 3.69665 20.5673 3.42318 20.287 3.30709C20.0068 3.191 19.6842 3.25517 19.4697 3.46967L20 4ZM4 4L3.46967 3.46967C3.32902 3.61032 3.25 3.80109 3.25 4H4ZM3.25 21C3.25 21.4142 3.58579 21.75 4 21.75C4.41421 21.75 4.75 21.4142 4.75 21H3.25ZM4 16C4.53033 16.5303 4.52995 16.5307 4.52956 16.5311C4.52944 16.5312 4.52906 16.5316 4.52882 16.5318C4.52833 16.5323 4.52785 16.5328 4.52739 16.5333C4.52647 16.5342 4.5256 16.535 4.52479 16.5358C4.52317 16.5374 4.52178 16.5387 4.52062 16.5398C4.5183 16.5421 4.5169 16.5433 4.51647 16.5437C4.51559 16.5445 4.51856 16.5418 4.52561 16.536C4.53968 16.5244 4.57021 16.5004 4.61915 16.4678C4.71676 16.4027 4.88946 16.302 5.15354 16.1964C5.68039 15.9856 6.58454 15.75 8 15.75V14.25C6.41546 14.25 5.31961 14.5144 4.59646 14.8036C4.23554 14.948 3.97074 15.0973 3.7871 15.2197C3.69542 15.2808 3.62438 15.335 3.57205 15.3781C3.54589 15.3996 3.52445 15.4184 3.50746 15.4338C3.49897 15.4415 3.49159 15.4484 3.4853 15.4544C3.48216 15.4574 3.47929 15.4602 3.47668 15.4627C3.47538 15.464 3.47414 15.4652 3.47298 15.4664C3.47239 15.467 3.47182 15.4675 3.47127 15.4681C3.471 15.4683 3.4706 15.4687 3.47046 15.4689C3.47006 15.4693 3.46967 15.4697 4 16ZM8 15.75C9.33552 15.75 10.4579 16.1909 11.7215 16.6964C12.9579 17.1909 14.3355 17.75 16 17.75V16.25C14.6645 16.25 13.5421 15.8091 12.2785 15.3036C11.0421 14.8091 9.66448 14.25 8 14.25V15.75ZM16 17.75C17.5845 17.75 18.6804 17.4856 19.4035 17.1964C19.7645 17.052 20.0293 16.9027 20.2129 16.7803C20.3046 16.7192 20.3756 16.665 20.428 16.6219C20.4541 16.6004 20.4756 16.5816 20.4925 16.5662C20.501 16.5585 20.5084 16.5516 20.5147 16.5456C20.5178 16.5426 20.5207 16.5398 20.5233 16.5373C20.5246 16.536 20.5259 16.5348 20.527 16.5336C20.5276 16.533 20.5282 16.5325 20.5287 16.5319C20.529 16.5317 20.5294 16.5313 20.5295 16.5311C20.5299 16.5307 20.5303 16.5303 20 16C19.4697 15.4697 19.4701 15.4693 19.4704 15.4689C19.4706 15.4688 19.4709 15.4684 19.4712 15.4682C19.4717 15.4677 19.4721 15.4672 19.4726 15.4667C19.4735 15.4658 19.4744 15.465 19.4752 15.4642C19.4768 15.4626 19.4782 15.4613 19.4794 15.4602C19.4817 15.4579 19.4831 15.4567 19.4835 15.4563C19.4844 15.4555 19.4814 15.4582 19.4744 15.464C19.4603 15.4756 19.4298 15.4996 19.3808 15.5322C19.2832 15.5973 19.1105 15.698 18.8465 15.8036C18.3196 16.0144 17.4155 16.25 16 16.25V17.75ZM20.75 16V4H19.25V16H20.75ZM20 4C19.4697 3.46967 19.4701 3.46929 19.4704 3.4689C19.4706 3.46878 19.4709 3.46841 19.4712 3.46816C19.4717 3.46768 19.4721 3.4672 19.4726 3.46675C19.4735 3.46584 19.4744 3.46498 19.4752 3.46419C19.4768 3.46261 19.4782 3.46127 19.4794 3.46016C19.4817 3.45795 19.4831 3.45667 19.4835 3.45628C19.4844 3.45548 19.4814 3.45822 19.4744 3.46402C19.4603 3.47561 19.4298 3.49958 19.3808 3.53221C19.2832 3.59729 19.1105 3.69801 18.8465 3.80364C18.3196 4.01438 17.4155 4.25 16 4.25V5.75C17.5845 5.75 18.6804 5.48562 19.4035 5.19636C19.7645 5.05199 20.0293 4.90271 20.2129 4.78029C20.3046 4.71917 20.3756 4.66501 20.428 4.62192C20.4541 4.60038 20.4756 4.58163 20.4925 4.56619C20.501 4.55846 20.5084 4.55157 20.5147 4.54557C20.5178 4.54258 20.5207 4.5398 20.5233 4.53726C20.5246 4.53599 20.5259 4.53477 20.527 4.53362C20.5276 4.53304 20.5282 4.53248 20.5287 4.53193C20.529 4.53165 20.5294 4.53126 20.5295 4.53112C20.5299 4.53072 20.5303 4.53033 20 4ZM16 4.25C14.6645 4.25 13.5421 3.80907 12.2785 3.30364C11.0421 2.80907 9.66448 2.25 8 2.25V3.75C9.33552 3.75 10.4579 4.19093 11.7215 4.69636C12.9579 5.19093 14.3355 5.75 16 5.75V4.25ZM8 2.25C6.41546 2.25 5.31961 2.51438 4.59646 2.80364C4.23554 2.94801 3.97074 3.09729 3.7871 3.21971C3.69542 3.28083 3.62438 3.33499 3.57205 3.37808C3.54589 3.39962 3.52445 3.41837 3.50746 3.43381C3.49897 3.44154 3.49159 3.44843 3.4853 3.45443C3.48216 3.45742 3.47929 3.4602 3.47668 3.46274C3.47538 3.46401 3.47414 3.46523 3.47298 3.46638C3.47239 3.46696 3.47182 3.46752 3.47127 3.46807C3.471 3.46835 3.4706 3.46874 3.47046 3.46888C3.47006 3.46928 3.46967 3.46967 4 4C4.53033 4.53033 4.52995 4.53071 4.52956 4.5311C4.52944 4.53122 4.52906 4.53159 4.52882 4.53184C4.52833 4.53232 4.52785 4.5328 4.52739 4.53325C4.52647 4.53416 4.5256 4.53502 4.52479 4.53581C4.52317 4.53739 4.52178 4.53873 4.52062 4.53984C4.5183 4.54205 4.5169 4.54333 4.51647 4.54372C4.51559 4.54452 4.51856 4.54178 4.52561 4.53598C4.53968 4.52439 4.57021 4.50042 4.61915 4.46779C4.71676 4.40271 4.88946 4.30199 5.15354 4.19636C5.68039 3.98562 6.58454 3.75 8 3.75V2.25ZM3.25 4V21H4.75V4H3.25Z" fill="var(--icon-stroke-color,currentColor)"/>
</svg>
