<svg id="icon" viewBox="0 0 24 24" fill="none" xmlns="http://www.w3.org/2000/svg">
<path d="M5 10H19V20H5V10Z" fill="var(--icon-shade-color)"/>
<path d="M4 7H20V10H4V7Z" fill="var(--icon-shade-color)"/>
<path d="M5 9.99999V9.24999C4.58579 9.24999 4.25 9.58578 4.25 9.99999H5ZM19 9.99999H19.75C19.75 9.58578 19.4142 9.24999 19 9.24999V9.99999ZM19 20V20.75C19.4142 20.75 19.75 20.4142 19.75 20H19ZM5 20H4.25C4.25 20.4142 4.58579 20.75 5 20.75V20ZM14 20V20.75C14.4142 20.75 14.75 20.4142 14.75 20H14ZM10 20H9.25C9.25 20.4142 9.58579 20.75 10 20.75V20ZM4 6.99999V6.24999C3.58579 6.24999 3.25 6.58578 3.25 6.99999H4ZM20 6.99999H20.75C20.75 6.58578 20.4142 6.24999 20 6.24999V6.99999ZM20 9.99999V10.75C20.4142 10.75 20.75 10.4142 20.75 9.99999H20ZM4 9.99999H3.25C3.25 10.4142 3.58579 10.75 4 10.75V9.99999ZM10 6.99999V6.24999C9.58579 6.24999 9.25 6.58578 9.25 6.99999H10ZM14 6.99999H14.75C14.75 6.58578 14.4142 6.24999 14 6.24999V6.99999ZM11.8659 6.84997L11.1415 6.65582L10.9473 7.38026L11.6718 7.57441L11.8659 6.84997ZM17.0621 3.84997L17.7116 3.47497L17.7116 3.47497L17.0621 3.84997ZM12.0623 6.84997L12.2565 7.57441L12.9809 7.38026L12.7868 6.65582L12.0623 6.84997ZM6.86617 3.84997L6.21665 3.47497L6.21665 3.47497L6.86617 3.84997ZM5 10.75H19V9.24999H5V10.75ZM18.25 9.99999V20H19.75V9.99999H18.25ZM19 19.25H5V20.75H19V19.25ZM5.75 20V9.99999H4.25V20H5.75ZM10 10.75H14V9.24999H10V10.75ZM13.25 9.99999V20H14.75V9.99999H13.25ZM14 19.25H10V20.75H14V19.25ZM10.75 20V9.99999H9.25V20H10.75ZM4 7.74999H20V6.24999H4V7.74999ZM19.25 6.99999V9.99999H20.75V6.99999H19.25ZM20 9.24999H4V10.75H20V9.24999ZM4.75 9.99999V6.99999H3.25V9.99999H4.75ZM10 7.74999H14V6.24999H10V7.74999ZM13.25 6.99999V9.99999H14.75V6.99999H13.25ZM10.75 9.99999V6.99999H9.25V9.99999H10.75ZM12.5903 7.04412C12.8189 6.19124 13.6426 4.92567 14.5705 4.19729C15.0346 3.83294 15.4228 3.68419 15.6937 3.68451C15.8907 3.68474 16.1444 3.76048 16.4125 4.22497L17.7116 3.47497C17.2297 2.64039 16.5275 2.18549 15.6954 2.18451C14.9372 2.18362 14.223 2.56308 13.6443 3.01739C12.4864 3.92631 11.462 5.45979 11.1415 6.65582L12.5903 7.04412ZM16.4125 4.22497C16.6807 4.6895 16.6195 4.94712 16.5212 5.11788C16.386 5.35264 16.0631 5.61443 15.5156 5.83422C14.4208 6.27363 12.913 6.35413 12.0601 6.12554L11.6718 7.57441C12.8679 7.89498 14.7082 7.7746 16.0743 7.22627C16.7571 6.9522 17.4428 6.52341 17.8211 5.86628C18.2363 5.14515 18.1934 4.30956 17.7116 3.47497L16.4125 4.22497ZM12.7868 6.65582C12.4662 5.45979 11.4418 3.92631 10.2839 3.01739C9.70518 2.56308 8.99101 2.18362 8.23278 2.18451C7.40069 2.18549 6.69849 2.64039 6.21665 3.47497L7.51569 4.22497C7.78386 3.76048 8.03754 3.68474 8.23455 3.68451C8.50543 3.68419 8.89359 3.83294 9.35773 4.19729C10.2856 4.92567 11.1093 6.19124 11.3379 7.04412L12.7868 6.65582ZM6.21665 3.47497C5.7348 4.30956 5.69191 5.14515 6.10708 5.86628C6.48539 6.52341 7.17109 6.9522 7.85392 7.22627C9.22001 7.7746 11.0603 7.89498 12.2565 7.57441L11.8682 6.12554C11.0152 6.35413 9.50739 6.27363 8.41266 5.83422C7.86508 5.61443 7.54219 5.35264 7.40704 5.11788C7.30873 4.94712 7.24749 4.6895 7.51569 4.22497L6.21665 3.47497Z" fill="var(--icon-stroke-color,currentColor)"/>
</svg>
