<svg id="icon" viewBox="0 0 24 24" fill="none" xmlns="http://www.w3.org/2000/svg">
<path d="M3 14H6C7.10457 14 8 14.8954 8 16V19C8 20.1046 7.10457 21 6 21H3V14Z" fill="var(--icon-shade-color)"/>
<path d="M21 21H18C16.8954 21 16 20.1046 16 19V16C16 14.8954 16.8954 14 18 14H21V21Z" fill="var(--icon-shade-color)"/>
<path d="M3 21V12C3 7.02944 7.02944 3 12 3C16.9706 3 21 7.02944 21 12V21M3 21H6C7.10457 21 8 20.1046 8 19V16C8 14.8954 7.10457 14 6 14H3V21ZM21 21H18C16.8954 21 16 20.1046 16 19V16C16 14.8954 16.8954 14 18 14H21V21Z" stroke="var(--icon-stroke-color,currentColor)" stroke-width="1.5" stroke-linecap="round" stroke-linejoin="round"/>
</svg>
