<svg id="icon" viewBox="0 0 24 24" fill="none" xmlns="http://www.w3.org/2000/svg">
<path  d="M4 8C4 5.79086 5.79086 4 8 4H16C18.2091 4 20 5.79086 20 8V16C20 18.2091 18.2091 20 16 20H8C5.79086 20 4 18.2091 4 16V8Z" fill="var(--icon-shade-color)"/>
<path d="M11.25 17C11.25 17.4142 11.5858 17.75 12 17.75C12.4142 17.75 12.75 17.4142 12.75 17L11.25 17ZM12.75 10C12.75 9.58579 12.4142 9.25 12 9.25C11.5858 9.25 11.25 9.58579 11.25 10L12.75 10ZM11.25 7.00996C11.25 7.42418 11.5858 7.75996 12 7.75996C12.4142 7.75996 12.75 7.42418 12.75 7.00996H11.25ZM12.75 6.99997C12.75 6.58576 12.4142 6.24997 12 6.24997C11.5858 6.24997 11.25 6.58576 11.25 6.99997H12.75ZM12.75 17L12.75 10L11.25 10L11.25 17L12.75 17ZM12.75 7.00996V6.99997H11.25V7.00996H12.75ZM8 4.75H16V3.25H8V4.75ZM19.25 8V16H20.75V8H19.25ZM16 19.25H8V20.75H16V19.25ZM4.75 16V8H3.25V16H4.75ZM8 19.25C6.20507 19.25 4.75 17.7949 4.75 16H3.25C3.25 18.6234 5.37665 20.75 8 20.75V19.25ZM19.25 16C19.25 17.7949 17.7949 19.25 16 19.25V20.75C18.6234 20.75 20.75 18.6234 20.75 16H19.25ZM16 4.75C17.7949 4.75 19.25 6.20507 19.25 8H20.75C20.75 5.37665 18.6234 3.25 16 3.25V4.75ZM8 3.25C5.37665 3.25 3.25 5.37665 3.25 8H4.75C4.75 6.20507 6.20507 4.75 8 4.75V3.25Z" fill="var(--icon-stroke-color,currentColor)"/>
</svg>
