<svg id="icon" viewBox="0 0 24 24" fill="none" xmlns="http://www.w3.org/2000/svg">
<path  fill-rule="evenodd" clip-rule="evenodd" d="M13 15.5C13 17.9833 10.9851 20 8.49878 20C6.01485 20 4 17.9833 4 15.5C4 13.0167 6.01485 11 8.49878 11C10.9851 11 13 13.0167 13 15.5Z" fill="var(--icon-shade-color)"/>
<path d="M11.6915 12.3086L21.0001 3M18 6L20 8L17 11L15 9M13 15.5C13 17.9833 10.9851 20 8.49878 20C6.01485 20 4 17.9833 4 15.5C4 13.0167 6.01485 11 8.49878 11C10.9851 11 13 13.0167 13 15.5Z" stroke="var(--icon-stroke-color,currentColor)" stroke-width="1.5" stroke-linecap="round" stroke-linejoin="round"/>
</svg>
