<svg id="icon" viewBox="0 0 24 24" fill="none" xmlns="http://www.w3.org/2000/svg">
<path  d="M21 18V6.00001C21 5.72387 20.8881 5.47387 20.7071 5.29291L20.5 5.50001L13.4142 12.5858C12.6332 13.3668 11.3668 13.3668 10.5858 12.5858L3.5 5.50001L3.29289 5.29291C3.11193 5.47387 3 5.72387 3 6.00001V18C3 18.5523 3.44772 19 4 19H20C20.5523 19 21 18.5523 21 18Z" fill="var(--icon-shade-color)"/>
<path d="M3.5 5.5L10.5858 12.5858C11.3668 13.3668 12.6332 13.3668 13.4142 12.5858L20.5 5.5M4 19H20C20.5523 19 21 18.5523 21 18V6C21 5.44772 20.5523 5 20 5H4C3.44772 5 3 5.44772 3 6V18C3 18.5523 3.44772 19 4 19Z" stroke="var(--icon-stroke-color,currentColor)" stroke-width="1.5" stroke-linecap="round" stroke-linejoin="round"/>
</svg>
