<svg id="icon" viewBox="0 0 24 24" fill="none" xmlns="http://www.w3.org/2000/svg">
<path  d="M4 9C4 7.89543 4.89543 7 6 7H18C19.1046 7 20 7.89543 20 9V18C20 19.1046 19.1046 20 18 20H6C4.89543 20 4 19.1046 4 18V9Z" fill="var(--icon-shade-color)"/>
<path d="M15 7V5C15 3.89543 14.1046 3 13 3H11C9.89543 3 9 3.89543 9 5V7M12 10V17M8.5 13.5H15.5M6 20H18C19.1046 20 20 19.1046 20 18V9C20 7.89543 19.1046 7 18 7H6C4.89543 7 4 7.89543 4 9V18C4 19.1046 4.89543 20 6 20Z" stroke="var(--icon-stroke-color,currentColor)" stroke-width="1.5" stroke-linecap="round" stroke-linejoin="round"/>
</svg>
