<svg id="icon" viewBox="0 0 24 24" fill="none" xmlns="http://www.w3.org/2000/svg">
<path  d="M4 4H20V20H4V4Z" fill="var(--icon-shade-color)"/>
<path d="M8 11.25C7.58579 11.25 7.25 11.5858 7.25 12C7.25 12.4142 7.58579 12.75 8 12.75L8 11.25ZM16 12.75C16.4142 12.75 16.75 12.4142 16.75 12C16.75 11.5858 16.4142 11.25 16 11.25L16 12.75ZM4 4V3.25C3.58579 3.25 3.25 3.58579 3.25 4H4ZM20 4H20.75C20.75 3.58579 20.4142 3.25 20 3.25V4ZM20 20V20.75C20.4142 20.75 20.75 20.4142 20.75 20H20ZM4 20H3.25C3.25 20.4142 3.58579 20.75 4 20.75V20ZM8 12.75L16 12.75L16 11.25L8 11.25L8 12.75ZM4 4.75H20V3.25H4V4.75ZM19.25 4V20H20.75V4H19.25ZM20 19.25H4V20.75H20V19.25ZM4.75 20V4H3.25V20H4.75Z" fill="var(--icon-stroke-color,currentColor)"/>
</svg>
