<svg id="icon" viewBox="0 0 24 24" fill="none" xmlns="http://www.w3.org/2000/svg">
<path  d="M20.9994 16.4767V19.1864C21.0036 20.2223 20.0722 21.0873 19.0264 20.9929C10 21 3 13.935 3.00706 4.96919C2.91287 3.92895 3.77358 3.00106 4.80811 3.00009H7.52325C7.96247 2.99577 8.38828 3.151 8.72131 3.43684C9.66813 4.24949 10.2771 7.00777 10.0428 8.10428C9.85987 8.96036 8.9969 9.55929 8.41019 10.1448C9.69858 12.4062 11.5746 14.2785 13.8405 15.5644C14.4272 14.9788 15.0273 14.1176 15.8851 13.935C16.9855 13.7008 19.7615 14.3106 20.5709 15.264C20.8579 15.6021 21.0104 16.0337 20.9994 16.4767Z" fill="var(--icon-shade-color)"/>
<path d="M14.5 6.5C15.2371 6.64382 15.9689 6.96892 16.5 7.5C17.031 8.03108 17.3561 8.76284 17.5 9.5M15 3C16.5315 3.17014 17.9096 3.91107 19 5C20.0903 6.08893 20.8279 7.46869 21 9M20.9994 16.4767V19.1864C21.0036 20.2223 20.0722 21.0873 19.0264 20.9929C10 21 3 13.935 3.00706 4.96919C2.91287 3.92895 3.77358 3.00106 4.80811 3.00009H7.52325C7.96247 2.99577 8.38828 3.151 8.72131 3.43684C9.66813 4.24949 10.2771 7.00777 10.0428 8.10428C9.85987 8.96036 8.9969 9.55929 8.41019 10.1448C9.69858 12.4062 11.5746 14.2785 13.8405 15.5644C14.4272 14.9788 15.0273 14.1176 15.8851 13.935C16.9855 13.7008 19.7615 14.3106 20.5709 15.264C20.8579 15.6021 21.0104 16.0337 20.9994 16.4767Z" stroke="var(--icon-stroke-color,currentColor)" stroke-width="1.5" stroke-linecap="round" stroke-linejoin="round"/>
</svg>
