<svg id="icon" viewBox="0 0 24 24" fill="none" xmlns="http://www.w3.org/2000/svg">
<path  d="M20.9994 16.4767V19.1864C21.0036 20.2223 20.0722 21.0873 19.0264 20.9929C10 21 3 13.935 3.00706 4.96919C2.91287 3.92895 3.77358 3.00106 4.80811 3.00009H7.52325C7.96247 2.99577 8.38828 3.151 8.72131 3.43684C9.66813 4.24949 10.2771 7.00777 10.0428 8.10428C9.85987 8.96036 8.9969 9.55929 8.41019 10.1448C9.69858 12.4062 11.5746 14.2785 13.8405 15.5644C14.4272 14.9788 15.0273 14.1176 15.8851 13.935C16.9855 13.7008 19.7615 14.3106 20.5709 15.264C20.8579 15.6021 21.0104 16.0337 20.9994 16.4767Z" fill="var(--icon-shade-color)"/>
<path d="M21 3L15 9M15 3L21 9M20.9994 16.4767V19.1864C21.0036 20.2223 20.0722 21.0873 19.0264 20.9929C10 21 3 13.935 3.00706 4.96919C2.91287 3.92895 3.77358 3.00106 4.80811 3.00009H7.52325C7.96247 2.99577 8.38828 3.151 8.72131 3.43684C9.66813 4.24949 10.2771 7.00777 10.0428 8.10428C9.85987 8.96036 8.9969 9.55929 8.41019 10.1448C9.69858 12.4062 11.5746 14.2785 13.8405 15.5644C14.4272 14.9788 15.0273 14.1176 15.8851 13.935C16.9855 13.7008 19.7615 14.3106 20.5709 15.264C20.8579 15.6021 21.0104 16.0337 20.9994 16.4767Z" stroke="var(--icon-stroke-color,currentColor)" stroke-width="1.5" stroke-linecap="round" stroke-linejoin="round"/>
</svg>
