<svg id="icon" viewBox="0 0 24 24" fill="none" xmlns="http://www.w3.org/2000/svg">
<path  d="M19 18L19 6L9 12L19 18Z" fill="var(--icon-shade-color)"/>
<path d="M19 18L18.6141 18.6431C18.8458 18.7821 19.1344 18.7858 19.3695 18.6526C19.6047 18.5195 19.75 18.2702 19.75 18L19 18ZM19 6L19.75 6C19.75 5.7298 19.6047 5.48048 19.3695 5.34735C19.1344 5.21422 18.8458 5.21786 18.6141 5.35688L19 6ZM9 12L8.61413 11.3569C8.38823 11.4924 8.25 11.7366 8.25 12C8.25 12.2634 8.38823 12.5076 8.61413 12.6431L9 12ZM4.25 18C4.25 18.4142 4.58579 18.75 5 18.75C5.41421 18.75 5.75 18.4142 5.75 18L4.25 18ZM5.75 6C5.75 5.58579 5.41421 5.25 5 5.25C4.58579 5.25 4.25 5.58579 4.25 6L5.75 6ZM18.25 6L18.25 18L19.75 18L19.75 6L18.25 6ZM9.38587 12.6431L19.3859 6.64312L18.6141 5.35688L8.61413 11.3569L9.38587 12.6431ZM19.3859 17.3569L9.38587 11.3569L8.61413 12.6431L18.6141 18.6431L19.3859 17.3569ZM5.75 18L5.75 6L4.25 6L4.25 18L5.75 18Z" fill="var(--icon-stroke-color,currentColor)"/>
</svg>
