<svg id="icon" viewBox="0 0 24 24" fill="none" xmlns="http://www.w3.org/2000/svg">
<path  d="M4 4H20V20H4V4Z" fill="var(--icon-shade-color)"/>
<path d="M12.75 16.99C12.75 16.5758 12.4142 16.24 12 16.24C11.5858 16.24 11.25 16.5758 11.25 16.99H12.75ZM11.25 17C11.25 17.4142 11.5858 17.75 12 17.75C12.4142 17.75 12.75 17.4142 12.75 17H11.25ZM11.25 14C11.25 14.4142 11.5858 14.75 12 14.75C12.4142 14.75 12.75 14.4142 12.75 14H11.25ZM8.27587 8.98654C8.16802 9.38647 8.40479 9.7981 8.80472 9.90595C9.20465 10.0138 9.61628 9.77702 9.72413 9.3771L8.27587 8.98654ZM4 4V3.25C3.58579 3.25 3.25 3.58579 3.25 4H4ZM20 4H20.75C20.75 3.58579 20.4142 3.25 20 3.25V4ZM20 20V20.75C20.4142 20.75 20.75 20.4142 20.75 20H20ZM4 20H3.25C3.25 20.4142 3.58579 20.75 4 20.75V20ZM11.25 16.99V17H12.75V16.99H11.25ZM14.25 9.90909C14.25 10.5071 13.8779 10.8232 13.0775 11.369C12.4012 11.8301 11.25 12.5419 11.25 14H12.75C12.75 13.4581 13.0988 13.1699 13.9225 12.6083C14.6221 12.1313 15.75 11.402 15.75 9.90909H14.25ZM12 7.75C13.2867 7.75 14.25 8.73398 14.25 9.90909H15.75C15.75 7.87091 14.0801 6.25 12 6.25V7.75ZM9.72413 9.3771C9.96738 8.47508 10.8917 7.75 12 7.75V6.25C10.2678 6.25 8.70934 7.37913 8.27587 8.98654L9.72413 9.3771ZM4 4.75H20V3.25H4V4.75ZM19.25 4V20H20.75V4H19.25ZM20 19.25H4V20.75H20V19.25ZM4.75 20V4H3.25V20H4.75Z" fill="var(--icon-stroke-color,currentColor)"/>
</svg>
