<svg id="icon" viewBox="0 0 24 24" fill="none" xmlns="http://www.w3.org/2000/svg">
<path  d="M4 8C4 5.79086 5.79086 4 8 4H16C18.2091 4 20 5.79086 20 8V16C20 18.2091 18.2091 20 16 20H8C5.79086 20 4 18.2091 4 16V8Z" fill="var(--icon-shade-color)"/>
<path d="M12.75 16.99C12.75 16.5758 12.4142 16.24 12 16.24C11.5858 16.24 11.25 16.5758 11.25 16.99H12.75ZM11.25 17C11.25 17.4142 11.5858 17.75 12 17.75C12.4142 17.75 12.75 17.4142 12.75 17H11.25ZM11.25 14C11.25 14.4142 11.5858 14.75 12 14.75C12.4142 14.75 12.75 14.4142 12.75 14H11.25ZM8.27587 8.98654C8.16802 9.38647 8.40479 9.7981 8.80472 9.90595C9.20465 10.0138 9.61628 9.77702 9.72413 9.3771L8.27587 8.98654ZM11.25 16.99V17H12.75V16.99H11.25ZM14.25 9.90909C14.25 10.5071 13.8779 10.8232 13.0775 11.369C12.4012 11.8301 11.25 12.5419 11.25 14H12.75C12.75 13.4581 13.0988 13.1699 13.9225 12.6083C14.6221 12.1313 15.75 11.402 15.75 9.90909H14.25ZM12 7.75C13.2867 7.75 14.25 8.73398 14.25 9.90909H15.75C15.75 7.87091 14.0801 6.25 12 6.25V7.75ZM9.72413 9.3771C9.96738 8.47508 10.8917 7.75 12 7.75V6.25C10.2678 6.25 8.70934 7.37913 8.27587 8.98654L9.72413 9.3771ZM8 4.75H16V3.25H8V4.75ZM19.25 8V16H20.75V8H19.25ZM16 19.25H8V20.75H16V19.25ZM4.75 16V8H3.25V16H4.75ZM8 19.25C6.20507 19.25 4.75 17.7949 4.75 16H3.25C3.25 18.6234 5.37665 20.75 8 20.75V19.25ZM19.25 16C19.25 17.7949 17.7949 19.25 16 19.25V20.75C18.6234 20.75 20.75 18.6234 20.75 16H19.25ZM16 4.75C17.7949 4.75 19.25 6.20507 19.25 8H20.75C20.75 5.37665 18.6234 3.25 16 3.25V4.75ZM8 3.25C5.37665 3.25 3.25 5.37665 3.25 8H4.75C4.75 6.20507 6.20507 4.75 8 4.75V3.25Z" fill="var(--icon-stroke-color,currentColor)"/>
</svg>
