<svg id="icon" viewBox="0 0 24 24" fill="none" xmlns="http://www.w3.org/2000/svg">
<path  d="M13 10.5C13 12.433 14.567 14 16.5 14L20 17.5V10.5C20 8.567 18.433 7 16.5 7C14.567 7 13 8.567 13 10.5Z" fill="var(--icon-shade-color)"/>
<path d="M3 10.5C3 12.433 4.567 14 6.5 14L10 17.5V10.5C10 8.567 8.433 7 6.5 7C4.567 7 3 8.567 3 10.5Z" stroke="var(--icon-stroke-color,currentColor)" stroke-width="1.5" stroke-linejoin="round"/>
<path d="M13 10.5C13 12.433 14.567 14 16.5 14L20 17.5V10.5C20 8.567 18.433 7 16.5 7C14.567 7 13 8.567 13 10.5Z" stroke="var(--icon-stroke-color,currentColor)" stroke-width="1.5" stroke-linejoin="round"/>
</svg>
