<svg id="icon" viewBox="0 0 24 24" fill="none" xmlns="http://www.w3.org/2000/svg">
<path  d="M4 4H20V20H4V4Z" fill="var(--icon-shade-color)"/>
<path d="M17.75 10C17.75 9.58579 17.4142 9.25 17 9.25C16.5858 9.25 16.25 9.58579 16.25 10H17.75ZM17 13V13.75C17.4142 13.75 17.75 13.4142 17.75 13H17ZM14 12.25C13.5858 12.25 13.25 12.5858 13.25 13C13.25 13.4142 13.5858 13.75 14 13.75V12.25ZM6.30737 12.7123C6.14849 13.0948 6.32979 13.5337 6.71232 13.6926C7.09485 13.8515 7.53375 13.6702 7.69263 13.2877L6.30737 12.7123ZM15.4662 11.4811L14.9167 11.9916C14.9238 11.9992 14.9311 12.0067 14.9385 12.014L15.4662 11.4811ZM4 4V3.25C3.58579 3.25 3.25 3.58579 3.25 4H4ZM20 4H20.75C20.75 3.58579 20.4142 3.25 20 3.25V4ZM20 20V20.75C20.4142 20.75 20.75 20.4142 20.75 20H20ZM4 20H3.25C3.25 20.4142 3.58579 20.75 4 20.75V20ZM16.25 10V13H17.75V10H16.25ZM17 12.25H14V13.75H17V12.25ZM7.69263 13.2877C8.07834 12.359 8.73289 11.7138 9.62638 11.1813L8.85843 9.89276C7.7677 10.5428 6.84826 11.41 6.30737 12.7123L7.69263 13.2877ZM9.62638 11.1813C10.4721 10.6772 11.4405 10.4861 12.3881 10.6298L12.613 9.14681C11.3155 8.95 9.99696 9.21419 8.85843 9.89276L9.62638 11.1813ZM12.3881 10.6298C13.3363 10.7737 14.2251 11.2472 14.9167 11.9916L16.0156 10.9706C15.1028 9.98804 13.9099 9.34354 12.613 9.14681L12.3881 10.6298ZM14.9385 12.014L16.4723 13.5329L17.5277 12.4671L15.9939 10.9482L14.9385 12.014ZM4 4.75H20V3.25H4V4.75ZM19.25 4V20H20.75V4H19.25ZM20 19.25H4V20.75H20V19.25ZM4.75 20V4H3.25V20H4.75Z" fill="var(--icon-stroke-color,currentColor)"/>
</svg>
