<svg id="icon" viewBox="0 0 24 24" fill="none" xmlns="http://www.w3.org/2000/svg">
<path  d="M21 12C21 16.9706 16.9706 21 12 21C7.02944 21 3 16.9706 3 12C3 7.02944 7.02944 3 12 3C16.9706 3 21 7.02944 21 12Z" fill="var(--icon-shade-color)"/>
<path d="M17.75 10C17.75 9.58579 17.4142 9.25 17 9.25C16.5858 9.25 16.25 9.58579 16.25 10H17.75ZM17 13V13.75C17.4142 13.75 17.75 13.4142 17.75 13H17ZM14 12.25C13.5858 12.25 13.25 12.5858 13.25 13C13.25 13.4142 13.5858 13.75 14 13.75V12.25ZM6.30737 12.7123C6.14849 13.0948 6.32979 13.5337 6.71232 13.6926C7.09485 13.8515 7.53375 13.6702 7.69263 13.2877L6.30737 12.7123ZM15.4662 11.4811L14.9167 11.9916C14.9238 11.9992 14.9311 12.0067 14.9385 12.014L15.4662 11.4811ZM16.25 10V13H17.75V10H16.25ZM17 12.25H14V13.75H17V12.25ZM7.69263 13.2877C8.07834 12.359 8.73289 11.7138 9.62638 11.1813L8.85843 9.89276C7.7677 10.5428 6.84826 11.41 6.30737 12.7123L7.69263 13.2877ZM9.62638 11.1813C10.4721 10.6772 11.4405 10.4861 12.3881 10.6298L12.613 9.14681C11.3155 8.95 9.99696 9.21419 8.85843 9.89276L9.62638 11.1813ZM12.3881 10.6298C13.3363 10.7737 14.2251 11.2472 14.9167 11.9916L16.0156 10.9706C15.1028 9.98805 13.9099 9.34354 12.613 9.14681L12.3881 10.6298ZM14.9385 12.014L16.4723 13.5329L17.5277 12.4671L15.9939 10.9482L14.9385 12.014ZM20.25 12C20.25 16.5563 16.5563 20.25 12 20.25V21.75C17.3848 21.75 21.75 17.3848 21.75 12H20.25ZM12 20.25C7.44365 20.25 3.75 16.5563 3.75 12H2.25C2.25 17.3848 6.61522 21.75 12 21.75V20.25ZM3.75 12C3.75 7.44365 7.44365 3.75 12 3.75V2.25C6.61522 2.25 2.25 6.61522 2.25 12H3.75ZM12 3.75C16.5563 3.75 20.25 7.44365 20.25 12H21.75C21.75 6.61522 17.3848 2.25 12 2.25V3.75Z" fill="var(--icon-stroke-color,currentColor)"/>
</svg>
