<svg id="icon" viewBox="0 0 24 24" fill="none" xmlns="http://www.w3.org/2000/svg">
<path  d="M21 12C21 16.9706 16.9706 21 12 21C7.02944 21 3 16.9706 3 12C3 7.02944 7.02944 3 12 3C16.9706 3 21 7.02944 21 12Z" fill="var(--icon-shade-color)"/>
<path d="M7.75 7.5C7.75 7.08579 7.41421 6.75 7 6.75C6.58579 6.75 6.25 7.08579 6.25 7.5H7.75ZM7 10H6.25C6.25 10.4142 6.58579 10.75 7 10.75V10ZM10 10.75C10.4142 10.75 10.75 10.4142 10.75 10C10.75 9.58579 10.4142 9.25 10 9.25V10.75ZM16.25 16.5C16.25 16.9142 16.5858 17.25 17 17.25C17.4142 17.25 17.75 16.9142 17.75 16.5H16.25ZM17 14H17.75C17.75 13.5858 17.4142 13.25 17 13.25V14ZM14 13.25C13.5858 13.25 13.25 13.5858 13.25 14C13.25 14.4142 13.5858 14.75 14 14.75V13.25ZM15.3634 10.3966C15.5825 10.7482 16.045 10.8556 16.3966 10.6366C16.7482 10.4175 16.8556 9.95497 16.6366 9.60341L15.3634 10.3966ZM13.9818 8.4222L13.7049 9.1192L13.7049 9.1192L13.9818 8.4222ZM11.0495 8.03299L11.125 8.77919L11.0495 8.03299ZM8.38042 8.98865L8.78697 9.6189C8.79737 9.61219 8.80761 9.60522 8.81767 9.59801L8.38042 8.98865ZM6.59346 9.24882C6.24538 9.47335 6.14522 9.93754 6.36974 10.2856C6.59427 10.6337 7.05846 10.7339 7.40654 10.5093L6.59346 9.24882ZM8.63656 13.6034C8.41753 13.2518 7.95497 13.1444 7.60341 13.3634C7.25184 13.5825 7.1444 14.045 7.36344 14.3966L8.63656 13.6034ZM10.0182 15.5778L10.2951 14.8808L10.2951 14.8808L10.0182 15.5778ZM15.6196 15.0114L15.213 14.3811C15.2026 14.3878 15.1924 14.3948 15.1823 14.402L15.6196 15.0114ZM17.4065 14.7512C17.7546 14.5267 17.8548 14.0625 17.6303 13.7144C17.4057 13.3663 16.9415 13.2661 16.5935 13.4907L17.4065 14.7512ZM6.25 7.5V10H7.75V7.5H6.25ZM7 10.75H10V9.25H7V10.75ZM17.75 16.5V14H16.25V16.5H17.75ZM17 13.25H14V14.75H17V13.25ZM16.6366 9.60341C16.1178 8.77067 15.2673 8.12594 14.2588 7.72521L13.7049 9.1192C14.4821 9.42802 15.0483 9.89079 15.3634 10.3966L16.6366 9.60341ZM14.2588 7.72521C13.2477 7.32347 12.097 7.17323 10.974 7.2868L11.125 8.77919C12.0226 8.68842 12.9302 8.81138 13.7049 9.1192L14.2588 7.72521ZM10.974 7.2868C9.85216 7.40025 8.78622 7.77437 7.94318 8.37928L8.81767 9.59801C9.4187 9.16674 10.2262 8.87007 11.125 8.77919L10.974 7.2868ZM7.97388 8.35839L6.59346 9.24882L7.40654 10.5093L8.78697 9.6189L7.97388 8.35839ZM7.36344 14.3966C7.88225 15.2293 8.73266 15.8741 9.74122 16.2748L10.2951 14.8808C9.51787 14.572 8.95169 14.1092 8.63656 13.6034L7.36344 14.3966ZM9.74122 16.2748C10.7523 16.6765 11.903 16.8268 13.026 16.7132L12.875 15.2208C11.9774 15.3116 11.0698 15.1886 10.2951 14.8808L9.74122 16.2748ZM13.026 16.7132C14.1478 16.5998 15.2138 16.2256 16.0568 15.6207L15.1823 14.402C14.5813 14.8333 13.7738 15.1299 12.875 15.2208L13.026 16.7132ZM16.0261 15.6416L17.4065 14.7512L16.5935 13.4907L15.213 14.3811L16.0261 15.6416ZM20.25 12C20.25 16.5563 16.5563 20.25 12 20.25V21.75C17.3848 21.75 21.75 17.3848 21.75 12H20.25ZM12 20.25C7.44365 20.25 3.75 16.5563 3.75 12H2.25C2.25 17.3848 6.61522 21.75 12 21.75V20.25ZM3.75 12C3.75 7.44365 7.44365 3.75 12 3.75V2.25C6.61522 2.25 2.25 6.61522 2.25 12H3.75ZM12 3.75C16.5563 3.75 20.25 7.44365 20.25 12H21.75C21.75 6.61522 17.3848 2.25 12 2.25V3.75Z" fill="var(--icon-stroke-color,currentColor)"/>
</svg>
