<svg id="icon" viewBox="0 0 24 24" fill="none" xmlns="http://www.w3.org/2000/svg">
<path  d="M21 12C21 16.9706 16.9706 21 12 21C7.02944 21 3 16.9706 3 12C3 7.02944 7.02944 3 12 3C16.9706 3 21 7.02944 21 12Z" fill="var(--icon-shade-color)"/>
<path d="M10.5303 9.53033C10.8232 9.23744 10.8232 8.76256 10.5303 8.46967C10.2374 8.17678 9.76256 8.17678 9.46967 8.46967L10.5303 9.53033ZM7 12L6.46967 11.4697C6.17678 11.7626 6.17678 12.2374 6.46967 12.5303L7 12ZM9.46967 15.5303C9.76256 15.8232 10.2374 15.8232 10.5303 15.5303C10.8232 15.2374 10.8232 14.7626 10.5303 14.4697L9.46967 15.5303ZM13.4697 14.4697C13.1768 14.7626 13.1768 15.2374 13.4697 15.5303C13.7626 15.8232 14.2374 15.8232 14.5303 15.5303L13.4697 14.4697ZM17 12L17.5303 12.5303C17.8232 12.2374 17.8232 11.7626 17.5303 11.4697L17 12ZM14.5303 8.46967C14.2374 8.17678 13.7626 8.17678 13.4697 8.46967C13.1768 8.76256 13.1768 9.23744 13.4697 9.53033L14.5303 8.46967ZM9.46967 8.46967L6.46967 11.4697L7.53033 12.5303L10.5303 9.53033L9.46967 8.46967ZM6.46967 12.5303L9.46967 15.5303L10.5303 14.4697L7.53033 11.4697L6.46967 12.5303ZM14.5303 15.5303L17.5303 12.5303L16.4697 11.4697L13.4697 14.4697L14.5303 15.5303ZM17.5303 11.4697L14.5303 8.46967L13.4697 9.53033L16.4697 12.5303L17.5303 11.4697ZM20.25 12C20.25 16.5563 16.5563 20.25 12 20.25V21.75C17.3848 21.75 21.75 17.3848 21.75 12H20.25ZM12 20.25C7.44365 20.25 3.75 16.5563 3.75 12H2.25C2.25 17.3848 6.61522 21.75 12 21.75V20.25ZM3.75 12C3.75 7.44365 7.44365 3.75 12 3.75V2.25C6.61522 2.25 2.25 6.61522 2.25 12H3.75ZM12 3.75C16.5563 3.75 20.25 7.44365 20.25 12H21.75C21.75 6.61522 17.3848 2.25 12 2.25V3.75Z" fill="var(--icon-stroke-color,currentColor)"/>
</svg>
