<svg id="icon" viewBox="0 0 24 24" fill="none" xmlns="http://www.w3.org/2000/svg">
<path  d="M21 12C21 16.9706 16.9706 21 12 21C7.02944 21 3 16.9706 3 12C3 7.02944 7.02944 3 12 3C16.9706 3 21 7.02944 21 12Z" fill="var(--icon-shade-color)"/>
<path d="M14.4697 10.5303C14.7626 10.8232 15.2374 10.8232 15.5303 10.5303C15.8232 10.2374 15.8232 9.76256 15.5303 9.46967L14.4697 10.5303ZM12 7L12.5303 6.46967C12.2374 6.17678 11.7626 6.17678 11.4697 6.46967L12 7ZM8.46967 9.46967C8.17678 9.76256 8.17678 10.2374 8.46967 10.5303C8.76256 10.8232 9.23744 10.8232 9.53033 10.5303L8.46967 9.46967ZM9.53033 13.4697C9.23744 13.1768 8.76256 13.1768 8.46967 13.4697C8.17678 13.7626 8.17678 14.2374 8.46967 14.5303L9.53033 13.4697ZM12 17L11.4697 17.5303C11.7626 17.8232 12.2374 17.8232 12.5303 17.5303L12 17ZM15.5303 14.5303C15.8232 14.2374 15.8232 13.7626 15.5303 13.4697C15.2374 13.1768 14.7626 13.1768 14.4697 13.4697L15.5303 14.5303ZM15.5303 9.46967L12.5303 6.46967L11.4697 7.53033L14.4697 10.5303L15.5303 9.46967ZM11.4697 6.46967L8.46967 9.46967L9.53033 10.5303L12.5303 7.53033L11.4697 6.46967ZM8.46967 14.5303L11.4697 17.5303L12.5303 16.4697L9.53033 13.4697L8.46967 14.5303ZM12.5303 17.5303L15.5303 14.5303L14.4697 13.4697L11.4697 16.4697L12.5303 17.5303ZM20.25 12C20.25 16.5563 16.5563 20.25 12 20.25V21.75C17.3848 21.75 21.75 17.3848 21.75 12H20.25ZM12 20.25C7.44365 20.25 3.75 16.5563 3.75 12H2.25C2.25 17.3848 6.61522 21.75 12 21.75V20.25ZM3.75 12C3.75 7.44365 7.44365 3.75 12 3.75V2.25C6.61522 2.25 2.25 6.61522 2.25 12H3.75ZM12 3.75C16.5563 3.75 20.25 7.44365 20.25 12H21.75C21.75 6.61522 17.3848 2.25 12 2.25V3.75Z" fill="var(--icon-stroke-color,currentColor)"/>
</svg>
