<svg id="icon" viewBox="0 0 24 24" fill="none" xmlns="http://www.w3.org/2000/svg">
<path  d="M4 4H20V20H4V4Z" fill="var(--icon-shade-color)"/>
<path d="M10.5303 9.53033C10.8232 9.23744 10.8232 8.76256 10.5303 8.46967C10.2374 8.17678 9.76256 8.17678 9.46967 8.46967L10.5303 9.53033ZM7 12L6.46967 11.4697C6.17678 11.7626 6.17678 12.2374 6.46967 12.5303L7 12ZM9.46967 15.5303C9.76256 15.8232 10.2374 15.8232 10.5303 15.5303C10.8232 15.2374 10.8232 14.7626 10.5303 14.4697L9.46967 15.5303ZM13.4697 14.4697C13.1768 14.7626 13.1768 15.2374 13.4697 15.5303C13.7626 15.8232 14.2374 15.8232 14.5303 15.5303L13.4697 14.4697ZM17 12L17.5303 12.5303C17.8232 12.2374 17.8232 11.7626 17.5303 11.4697L17 12ZM14.5303 8.46967C14.2374 8.17678 13.7626 8.17678 13.4697 8.46967C13.1768 8.76256 13.1768 9.23744 13.4697 9.53033L14.5303 8.46967ZM4 4V3.25C3.58579 3.25 3.25 3.58579 3.25 4H4ZM20 4H20.75C20.75 3.58579 20.4142 3.25 20 3.25V4ZM20 20V20.75C20.4142 20.75 20.75 20.4142 20.75 20H20ZM4 20H3.25C3.25 20.4142 3.58579 20.75 4 20.75V20ZM9.46967 8.46967L6.46967 11.4697L7.53033 12.5303L10.5303 9.53033L9.46967 8.46967ZM6.46967 12.5303L9.46967 15.5303L10.5303 14.4697L7.53033 11.4697L6.46967 12.5303ZM14.5303 15.5303L17.5303 12.5303L16.4697 11.4697L13.4697 14.4697L14.5303 15.5303ZM17.5303 11.4697L14.5303 8.46967L13.4697 9.53033L16.4697 12.5303L17.5303 11.4697ZM4 4.75H20V3.25H4V4.75ZM19.25 4V20H20.75V4H19.25ZM20 19.25H4V20.75H20V19.25ZM4.75 20V4H3.25V20H4.75Z" fill="var(--icon-stroke-color,currentColor)"/>
</svg>
