<svg id="icon" viewBox="0 0 24 24" fill="none" xmlns="http://www.w3.org/2000/svg">
<path  d="M4 4H20V20H4V4Z" fill="var(--icon-shade-color)"/>
<path d="M14.4697 10.5303C14.7626 10.8232 15.2374 10.8232 15.5303 10.5303C15.8232 10.2374 15.8232 9.76256 15.5303 9.46967L14.4697 10.5303ZM12 7L12.5303 6.46967C12.2374 6.17678 11.7626 6.17678 11.4697 6.46967L12 7ZM8.46967 9.46967C8.17678 9.76256 8.17678 10.2374 8.46967 10.5303C8.76256 10.8232 9.23744 10.8232 9.53033 10.5303L8.46967 9.46967ZM9.53033 13.4697C9.23744 13.1768 8.76256 13.1768 8.46967 13.4697C8.17678 13.7626 8.17678 14.2374 8.46967 14.5303L9.53033 13.4697ZM12 17L11.4697 17.5303C11.7626 17.8232 12.2374 17.8232 12.5303 17.5303L12 17ZM15.5303 14.5303C15.8232 14.2374 15.8232 13.7626 15.5303 13.4697C15.2374 13.1768 14.7626 13.1768 14.4697 13.4697L15.5303 14.5303ZM4 4V3.25C3.58579 3.25 3.25 3.58579 3.25 4H4ZM20 4H20.75C20.75 3.58579 20.4142 3.25 20 3.25V4ZM20 20V20.75C20.4142 20.75 20.75 20.4142 20.75 20H20ZM4 20H3.25C3.25 20.4142 3.58579 20.75 4 20.75V20ZM15.5303 9.46967L12.5303 6.46967L11.4697 7.53033L14.4697 10.5303L15.5303 9.46967ZM11.4697 6.46967L8.46967 9.46967L9.53033 10.5303L12.5303 7.53033L11.4697 6.46967ZM8.46967 14.5303L11.4697 17.5303L12.5303 16.4697L9.53033 13.4697L8.46967 14.5303ZM12.5303 17.5303L15.5303 14.5303L14.4697 13.4697L11.4697 16.4697L12.5303 17.5303ZM4 4.75H20V3.25H4V4.75ZM19.25 4V20H20.75V4H19.25ZM20 19.25H4V20.75H20V19.25ZM4.75 20V4H3.25V20H4.75Z" fill="var(--icon-stroke-color,currentColor)"/>
</svg>
