<svg id="icon" viewBox="0 0 24 24" fill="none" xmlns="http://www.w3.org/2000/svg">
<path  d="M4 4H20V20H4V4Z" fill="var(--icon-shade-color)"/>
<path d="M8.75 7C8.75 6.58579 8.41421 6.25 8 6.25C7.58579 6.25 7.25 6.58579 7.25 7H8.75ZM8 10H7.25C7.25 10.4142 7.58579 10.75 8 10.75V10ZM11 10.75C11.4142 10.75 11.75 10.4142 11.75 10C11.75 9.58579 11.4142 9.25 11 9.25V10.75ZM8.9341 13.0799C8.79645 12.6893 8.36816 12.4842 7.97749 12.6218C7.58682 12.7595 7.3817 13.1877 7.51935 13.5784L8.9341 13.0799ZM11.4424 8.03902L11.3379 7.29633L11.4424 8.03902ZM4 4V3.25C3.58579 3.25 3.25 3.58579 3.25 4H4ZM20 4H20.75C20.75 3.58579 20.4142 3.25 20 3.25V4ZM20 20V20.75C20.4142 20.75 20.75 20.4142 20.75 20H20ZM4 20H3.25C3.25 20.4142 3.58579 20.75 4 20.75V20ZM7.25 7V10H8.75V7H7.25ZM8 10.75H11V9.25H8V10.75ZM7.51935 13.5784C7.86159 14.5497 8.51024 15.3835 9.36758 15.9541L10.1987 14.7054C9.61207 14.315 9.16826 13.7445 8.9341 13.0799L7.51935 13.5784ZM9.36758 15.9541C10.2249 16.5248 11.2445 16.8013 12.2727 16.7422L12.1865 15.2446C11.4829 15.2851 10.7853 15.0959 10.1987 14.7054L9.36758 15.9541ZM12.2727 16.7422C13.3008 16.683 14.2819 16.2913 15.0681 15.6261L14.0993 14.481C13.5613 14.9361 12.89 15.2041 12.1865 15.2446L12.2727 16.7422ZM15.0681 15.6261C15.8543 14.9609 16.403 14.0582 16.6316 13.054L15.169 12.7211C15.0126 13.4082 14.6372 14.0258 14.0993 14.481L15.0681 15.6261ZM16.6316 13.054C16.8601 12.0498 16.7561 10.9986 16.3352 10.0587L14.9662 10.6718C15.2542 11.3148 15.3253 12.0341 15.169 12.7211L16.6316 13.054ZM16.3352 10.0587C15.9142 9.11879 15.1992 8.34114 14.2979 7.84291L13.5722 9.1557C14.189 9.4966 14.6782 10.0287 14.9662 10.6718L16.3352 10.0587ZM14.2979 7.84291C13.3966 7.34468 12.3577 7.15286 11.3379 7.29633L11.5469 8.7817C12.2447 8.68353 12.9555 8.81479 13.5722 9.1557L14.2979 7.84291ZM11.3379 7.29633C10.4985 7.41442 9.79973 7.7791 9.19891 8.18035C8.89917 8.38052 8.61352 8.59702 8.34614 8.8022C8.07294 9.01184 7.8224 9.2068 7.56662 9.38789L8.43338 10.6121C8.71895 10.4099 8.99879 10.1921 9.25931 9.99221C9.52565 9.78784 9.77704 9.598 10.032 9.42775C10.5405 9.08814 11.0216 8.8556 11.5469 8.7817L11.3379 7.29633ZM4 4.75H20V3.25H4V4.75ZM19.25 4V20H20.75V4H19.25ZM20 19.25H4V20.75H20V19.25ZM4.75 20V4H3.25V20H4.75Z" fill="var(--icon-stroke-color,currentColor)"/>
</svg>
