<svg id="icon" viewBox="0 0 24 24" fill="none" xmlns="http://www.w3.org/2000/svg">
<path  d="M4 6C4 4.89543 4.89543 4 6 4H14.1716C14.702 4 15.2107 4.21071 15.5858 4.58579L19.4142 8.41421C19.7893 8.78929 20 9.29799 20 9.82843V18C20 19.1046 19.1046 20 18 20H6C4.89543 20 4 19.1046 4 18V6Z" fill="var(--icon-shade-color)"/>
<path d="M15 20V15H9V20M20 9.82843V18C20 19.1046 19.1046 20 18 20H6C4.89543 20 4 19.1046 4 18V6C4 4.89543 4.89543 4 6 4H14.1716C14.702 4 15.2107 4.21071 15.5858 4.58579L19.4142 8.41421C19.7893 8.78929 20 9.29799 20 9.82843Z" stroke="var(--icon-stroke-color,currentColor)" stroke-width="1.5" stroke-linecap="round" stroke-linejoin="round"/>
</svg>
