<svg id="icon" viewBox="0 0 24 24" fill="none" xmlns="http://www.w3.org/2000/svg">
<path  d="M19.5 13.5C19.5 17.6421 16.1421 21 12 21C7.85786 21 4.5 17.6421 4.5 13.5C4.5 9.35786 7.85786 6 12 6C16.1421 6 19.5 9.35786 19.5 13.5Z" fill="var(--icon-shade-color)"/>
<path d="M10 3H14M12 10V13.5L14 15.5M19.5 13.5C19.5 17.6421 16.1421 21 12 21C7.85786 21 4.5 17.6421 4.5 13.5C4.5 9.35786 7.85786 6 12 6C16.1421 6 19.5 9.35786 19.5 13.5Z" stroke="var(--icon-stroke-color,currentColor)" stroke-width="1.5" stroke-linecap="round" stroke-linejoin="round"/>
</svg>
