<svg id="icon" viewBox="0 0 24 24" fill="none" xmlns="http://www.w3.org/2000/svg">
<path  d="M17.6569 6.34315C19.1571 7.84344 20 9.87827 20 12L18 11L16 12L14 11L12 12L10 11L8 12L6 11L4 12C4 9.87827 4.84286 7.84344 6.34315 6.34315C7.84344 4.84285 9.87827 4 12 4C14.1217 4 16.1566 4.84285 17.6569 6.34315Z" fill="var(--icon-shade-color)"/>
<path d="M12 12V21M12 12L10 11L8 12L6 11L4 12C4 9.87827 4.84286 7.84344 6.34315 6.34315C7.84344 4.84285 9.87827 4 12 4M12 12L14 11L16 12L18 11L20 12C20 9.87827 19.1571 7.84344 17.6569 6.34315C16.1566 4.84285 14.1217 4 12 4M12 3V4" stroke="var(--icon-stroke-color,currentColor)" stroke-width="1.5" stroke-linecap="round" stroke-linejoin="round"/>
</svg>
