<svg id="icon" viewBox="0 0 24 24" fill="none" xmlns="http://www.w3.org/2000/svg">
<path  d="M4 4H20V20H4V4Z" fill="var(--icon-shade-color)"/>
<path d="M7.75 10C7.75 9.58579 7.41421 9.25 7 9.25C6.58579 9.25 6.25 9.58579 6.25 10H7.75ZM7 13H6.25C6.25 13.4142 6.58579 13.75 7 13.75V13ZM10 13.75C10.4142 13.75 10.75 13.4142 10.75 13C10.75 12.5858 10.4142 12.25 10 12.25V13.75ZM16.3074 13.2877C16.4663 13.6702 16.9052 13.8515 17.2877 13.6926C17.6702 13.5337 17.8515 13.0948 17.6926 12.7123L16.3074 13.2877ZM8.53381 11.4811L9.06154 12.014C9.06893 12.0067 9.07617 11.9992 9.08326 11.9916L8.53381 11.4811ZM4 4V3.25C3.58579 3.25 3.25 3.58579 3.25 4H4ZM20 4H20.75C20.75 3.58579 20.4142 3.25 20 3.25V4ZM20 20V20.75C20.4142 20.75 20.75 20.4142 20.75 20H20ZM4 20H3.25C3.25 20.4142 3.58579 20.75 4 20.75V20ZM6.25 10V13H7.75V10H6.25ZM7 13.75H10V12.25H7V13.75ZM17.6926 12.7123C17.1517 11.41 16.2323 10.5428 15.1416 9.89276L14.3736 11.1813C15.2671 11.7138 15.9217 12.359 16.3074 13.2877L17.6926 12.7123ZM15.1416 9.89276C14.003 9.21419 12.6845 8.95 11.387 9.14681L11.6119 10.6298C12.5595 10.4861 13.5279 10.6772 14.3736 11.1813L15.1416 9.89276ZM11.387 9.14681C10.0901 9.34354 8.89724 9.98804 7.98436 10.9706L9.08326 11.9916C9.7749 11.2472 10.6637 10.7737 11.6119 10.6298L11.387 9.14681ZM8.00607 10.9482L6.47226 12.4671L7.52774 13.5329L9.06154 12.014L8.00607 10.9482ZM4 4.75H20V3.25H4V4.75ZM19.25 4V20H20.75V4H19.25ZM20 19.25H4V20.75H20V19.25ZM4.75 20V4H3.25V20H4.75Z" fill="var(--icon-stroke-color,currentColor)"/>
</svg>
