<svg id="icon" viewBox="0 0 24 24" fill="none" xmlns="http://www.w3.org/2000/svg">
<path  d="M12 11C14.2091 11 16 9.20914 16 7C16 4.79086 14.2091 3 12 3C9.79086 3 8 4.79086 8 7C8 9.20914 9.79086 11 12 11Z" fill="var(--icon-shade-color)"/>
<path d="M19.25 21C19.25 21.4142 19.5858 21.75 20 21.75C20.4142 21.75 20.75 21.4142 20.75 21H19.25ZM3.25 21C3.25 21.4142 3.58579 21.75 4 21.75C4.41421 21.75 4.75 21.4142 4.75 21H3.25ZM21.75 13C21.75 12.5858 21.4142 12.25 21 12.25C20.5858 12.25 20.25 12.5858 20.25 13H21.75ZM20.25 13.01C20.25 13.4242 20.5858 13.76 21 13.76C21.4142 13.76 21.75 13.4242 21.75 13.01H20.25ZM20.25 11C20.25 11.4142 20.5858 11.75 21 11.75C21.4142 11.75 21.75 11.4142 21.75 11H20.25ZM18.2727 7.37538C18.1716 7.77707 18.4153 8.18466 18.8169 8.28576C19.2186 8.38686 19.6262 8.14319 19.7273 7.7415L18.2727 7.37538ZM8 15.75H16V14.25H8V15.75ZM19.25 19V21H20.75V19H19.25ZM4.75 21V19H3.25V21H4.75ZM16 15.75C17.7949 15.75 19.25 17.2051 19.25 19H20.75C20.75 16.3766 18.6234 14.25 16 14.25V15.75ZM8 14.25C5.37665 14.25 3.25 16.3766 3.25 19H4.75C4.75 17.2051 6.20507 15.75 8 15.75V14.25ZM15.25 7C15.25 8.79493 13.7949 10.25 12 10.25V11.75C14.6234 11.75 16.75 9.62335 16.75 7H15.25ZM12 10.25C10.2051 10.25 8.75 8.79493 8.75 7H7.25C7.25 9.62335 9.37665 11.75 12 11.75V10.25ZM8.75 7C8.75 5.20507 10.2051 3.75 12 3.75V2.25C9.37665 2.25 7.25 4.37665 7.25 7H8.75ZM12 3.75C13.7949 3.75 15.25 5.20507 15.25 7H16.75C16.75 4.37665 14.6234 2.25 12 2.25V3.75ZM20.25 13V13.01H21.75V13H20.25ZM22.25 8.07792C22.25 8.4006 22.0911 8.56799 21.5576 8.9577C21.1132 9.28233 20.25 9.85086 20.25 11H21.75C21.75 10.7206 21.8868 10.5748 22.4424 10.1689C22.9089 9.82811 23.75 9.24875 23.75 8.07792H22.25ZM21 6.75C21.677 6.75 22.25 7.31284 22.25 8.07792H23.75C23.75 6.54779 22.5675 5.25 21 5.25V6.75ZM19.7273 7.7415C19.8701 7.17411 20.4015 6.75 21 6.75V5.25C19.7049 5.25 18.581 6.15033 18.2727 7.37538L19.7273 7.7415Z" fill="var(--icon-stroke-color,currentColor)"/>
</svg>
