<svg id="icon" viewBox="0 0 24 24" fill="none" xmlns="http://www.w3.org/2000/svg">
<path  d="M9 11C11.2091 11 13 9.20914 13 7C13 4.79086 11.2091 3 9 3C6.79086 3 5 4.79086 5 7C5 9.20914 6.79086 11 9 11Z" fill="var(--icon-shade-color)"/>
<path d="M23 21V19C23 16.7909 21.2091 15 19 15H18.5M15 11C17.2091 11 19 9.20914 19 7C19 4.79086 17.2091 3 15 3M17 21V19C17 16.7909 15.2091 15 13 15H5C2.79086 15 1 16.7909 1 19V21M13 7C13 9.20914 11.2091 11 9 11C6.79086 11 5 9.20914 5 7C5 4.79086 6.79086 3 9 3C11.2091 3 13 4.79086 13 7Z" stroke="var(--icon-stroke-color,currentColor)" stroke-width="1.5" stroke-linecap="round" stroke-linejoin="round"/>
</svg>
