<svg id="icon" viewBox="0 0 24 24" fill="none" xmlns="http://www.w3.org/2000/svg">
<path  d="M12 11C13.6569 11 15 9.65685 15 8C15 6.34315 13.6569 5 12 5C10.3431 5 9 6.34315 9 8C9 9.65685 10.3431 11 12 11Z" fill="var(--icon-shade-color)"/>
<path d="M18 19V18C18 15.7909 16.2091 14 14 14H10C7.79086 14 6 15.7909 6 18V19M23 19V18C23 15.7909 21.2091 14 19 14H18.5M1 19V18C1 15.7909 2.79086 14 5 14H5.5M17 11C18.6569 11 20 9.65685 20 8C20 6.34315 18.6569 5 17 5M7 11C5.34315 11 4 9.65685 4 8C4 6.34315 5.34315 5 7 5M15 8C15 9.65685 13.6569 11 12 11C10.3431 11 9 9.65685 9 8C9 6.34315 10.3431 5 12 5C13.6569 5 15 6.34315 15 8Z" stroke="var(--icon-stroke-color,currentColor)" stroke-width="1.5" stroke-linecap="round" stroke-linejoin="round"/>
</svg>
