<svg id="icon" viewBox="0 0 24 24" fill="none" xmlns="http://www.w3.org/2000/svg">
<path  d="M5 14C5 10.5817 7.58172 6 12 3C16.4183 6 19 10.5817 19 14C19 18.4183 15.4183 21 12 21C8.58172 21 5 18.4183 5 14Z" fill="var(--icon-shade-color)"/>
<path d="M11.5 16.5C10.1193 16.5 9 15.3807 9 14M5 14C5 10.5817 7.58172 6 12 3C16.4183 6 19 10.5817 19 14C19 18.4183 15.4183 21 12 21C8.58172 21 5 18.4183 5 14Z" stroke="var(--icon-stroke-color,currentColor)" stroke-width="1.5" stroke-linecap="round" stroke-linejoin="round"/>
</svg>
