<svg id="icon" viewBox="0 0 24 24" fill="none" xmlns="http://www.w3.org/2000/svg">
<path  d="M3 10C3 9.44771 3.44772 9 4 9H16C16.5523 9 17 9.44772 17 10V19C17 19.5523 16.5523 20 16 20H4C3.44772 20 3 19.5523 3 19V10Z" fill="var(--icon-shade-color)"/>
<path d="M10 9V4C10 3.44772 10.4477 3 11 3H20C20.5523 3 21 3.44772 21 4V11C21 11.5523 20.5523 12 20 12H3M21 6H10M4 20H16C16.5523 20 17 19.5523 17 19V10C17 9.44772 16.5523 9 16 9H4C3.44772 9 3 9.44771 3 10V19C3 19.5523 3.44772 20 4 20Z" stroke="var(--icon-stroke-color,currentColor)" stroke-width="1.5" stroke-linecap="round" stroke-linejoin="round"/>
</svg>
