<svg id="icon" viewBox="0 0 24 24" fill="none" xmlns="http://www.w3.org/2000/svg">
<path  d="M10 17C13.866 17 17 13.866 17 10C17 6.13401 13.866 3 10 3C6.13401 3 3 6.13401 3 10C3 13.866 6.13401 17 10 17Z" fill="var(--icon-shade-color)"/>
<path d="M19.4697 20.5303C19.7626 20.8232 20.2374 20.8232 20.5303 20.5303C20.8232 20.2374 20.8232 19.7626 20.5303 19.4697L19.4697 20.5303ZM7 9.25C6.58579 9.25 6.25 9.58579 6.25 10C6.25 10.4142 6.58579 10.75 7 10.75L7 9.25ZM13 10.75C13.4142 10.75 13.75 10.4142 13.75 10C13.75 9.58579 13.4142 9.25 13 9.25L13 10.75ZM16.25 10C16.25 13.4518 13.4518 16.25 10 16.25V17.75C14.2802 17.75 17.75 14.2802 17.75 10H16.25ZM10 16.25C6.54822 16.25 3.75 13.4518 3.75 10H2.25C2.25 14.2802 5.71979 17.75 10 17.75V16.25ZM3.75 10C3.75 6.54822 6.54822 3.75 10 3.75V2.25C5.71979 2.25 2.25 5.71979 2.25 10H3.75ZM10 3.75C13.4518 3.75 16.25 6.54822 16.25 10H17.75C17.75 5.71979 14.2802 2.25 10 2.25V3.75ZM20.5303 19.4697L15.5303 14.4697L14.4697 15.5303L19.4697 20.5303L20.5303 19.4697ZM7 10.75L13 10.75L13 9.25L7 9.25L7 10.75Z" fill="var(--icon-stroke-color,currentColor)"/>
</svg>
