<svg xmlns="http://www.w3.org/2000/svg" width="426.667" height="426.667" version="1.0" viewBox="0 0 320 320"><path d="M155.5 6.2c-.2.7-.6 2.9-.7 4.8l-.3 3.5-9.5.5-9.5.5-.5 4.5-.5 4.5-9.5.5-9.5.5-.5 4.5-.5 4.5-4.5.5-4.5.5-.5 9.5-.5 9.5h-9L95 50l-.5-4.5h-9L85 50l-.5 4.5h-9L75 50l-.5-4.5L70 45l-4.5-.5L65 40l-.5-4.5h-9L55 40l-.5 4.5-9.5.5-9.5.5L35 50l-.5 4.5-9.5.5-9.5.5L15 60l-.5 4.5-4.5.5-4.5.5v129l4.5.5 4.5.5.5 4.5.5 4.5 9.5.5 9.5.5.5 4.5.5 4.5 9.5.5 9.5.5v9l-9.5.5-9.5.5-.5 4.5-.5 4.5-14.5.5-14.5.5v9l4.5.5 4.5.5.5 4.5.5 4.5 9.5.5 9.5.5.5 4.5.5 4.5 9.5.5 9.5.5.5 4.5.5 4.5 9.5.5 9.5.5.5 4.5.5 4.5 9.5.5 9.5.5.5 4.5.5 4.5 9.5.5 9.5.5.5 4.5.5 4.5 9.5.5 9.5.5.5 4.5.5 4.5h29l.5-4.5.5-4.5 14.5-.5 14.5-.5.5-4.5.5-4.5 14.5-.5 14.5-.5.5-4.5.5-4.5 14.5-.5 14.5-.5.5-4.5.5-4.5 14.5-.5 14.5-.5.5-4.5.5-4.5 14.5-.5 14.5-.5v-9l-9.5-.5-9.5-.5-.5-4.5-.5-4.5-9.5-.5-9.5-.5-.5-4.5-.5-4.5-9.5-.5-9.5-.5v-9l14.5-.5 14.5-.5.5-4.5.5-4.5 4.5-.5 4.5-.5.5-4.5.5-4.5 4.5-.5 4.5-.5v-139L300 65l-4.5-.5-.5-4.5-.5-4.5h-9L285 60l-.5 4.5h-9L275 60l-.5-4.5-4.5-.5-4.5-.5-.5-4.5-.5-4.5h-9L255 50l-.5 4.5-9.5.5-9.5.5-.5 4.5-.5 4.5-9.5.5-9.5.5-.5 4.5-.5 4.5h-9L205 50l-.5-24.5-4.5-.5-4.5-.5-.5-4.5-.5-4.5h-9L185 20l-.5 4.5h-9L175 20l-.5-4.5-4.5-.5-4.5-.5-.5-4.5c-.5-4.5-.5-4.5-4.8-4.8-2.8-.2-4.4.1-4.7 1z"/></svg>